<svg width="32" height="32" viewBox="0 0 32 32" fill="none" xmlns="http://www.w3.org/2000/svg">
<path d="M16 2.85713C16.6312 2.85713 17.1428 2.34545 17.1428 1.71427C17.1428 1.08309 16.6312 0.571411 16 0.571411C15.3688 0.571411 14.8571 1.08309 14.8571 1.71427C14.8571 2.34545 15.3688 2.85713 16 2.85713Z" fill="#181818"/>
<path d="M16 31.4285C16.6312 31.4285 17.1428 30.9169 17.1428 30.2857C17.1428 29.6545 16.6312 29.1428 16 29.1428C15.3688 29.1428 14.8571 29.6545 14.8571 30.2857C14.8571 30.9169 15.3688 31.4285 16 31.4285Z" fill="#181818"/>
<path d="M16 25.1429C21.0494 25.1429 25.1428 21.0495 25.1428 16C25.1428 10.9506 21.0494 6.85718 16 6.85718C10.9505 6.85718 6.85712 10.9506 6.85712 16C6.85712 21.0495 10.9505 25.1429 16 25.1429Z" stroke="#181818"/>
<path d="M16 6.85709V1.71423" stroke="#181818"/>
<path d="M16 30.2857V25.1428" stroke="#181818"/>
<path d="M18.8572 20.5714H13.1429" stroke="#181818" stroke-width="2"/>
<path d="M16 10.8572V16.5715" stroke="#181818" stroke-width="2"/>
<path d="M18.8572 13.7142H13.1429" stroke="#181818" stroke-width="2"/>
</svg>
