<svg width="32" height="32" viewBox="0 0 32 32" fill="none" xmlns="http://www.w3.org/2000/svg">
<path d="M19.3709 17.4307V18.16L19.3707 17.4571C19.3707 17.4483 19.3708 17.4395 19.3709 17.4307ZM19.3709 17.4307V15.9283C19.3709 15.0835 18.687 14.3985 17.8422 14.3985C17.005 14.3985 16.3266 15.0692 16.3125 15.9019M19.3709 17.4307C19.385 16.598 20.0635 15.9283 20.9006 15.9283C21.7454 15.9283 22.5718 16.6123 22.5718 17.4571V21.1807M16.3125 15.9019C16.3124 15.9107 16.3123 15.9195 16.3123 15.9283L16.3125 18.16V15.9019ZM16.3125 15.9019V14.3985C16.3125 13.5536 15.6286 12.8697 14.7837 12.8697C14.2868 12.8697 13.8457 13.1057 13.5664 13.4718M10.5718 21.29V9.81306C10.5718 8.96821 11.1555 8.20485 12.0004 8.20485C12.8463 8.20485 13.429 8.89725 13.429 9.8762V18.2933M11.6228 28.1866C8.96986 26.9249 7.13713 24.2205 7.13713 21.0881V20.5372C7.13713 19.6924 7.82105 19.0084 8.66589 19.0084C9.51074 19.0084 10.1958 19.6924 10.1958 20.5372M14.5627 7.7749L15.9286 6.39376M11.9912 3.70862V6.56576M9.38445 7.69969L8.02194 6.31468" stroke="#181818"/>
<path fill-rule="evenodd" clip-rule="evenodd" d="M20.0004 10.4752V7.88768L22.5954 7.1438L25.1432 7.88768V10.4752C25.1432 12.6574 22.5954 13.5665 22.5954 13.5665C22.595 13.5665 20.0004 12.6574 20.0004 10.4752Z" fill="#181818"/>
</svg>
