<svg width="32" height="32" viewBox="0 0 32 32" fill="none" xmlns="http://www.w3.org/2000/svg">
<path d="M26.3393 10.4366C27.6656 13.1504 27.6747 16.3452 26.3702 19.0669M29.2073 8.5675C31.0959 12.4572 31.1102 17.0286 29.2473 20.9281M5.72389 19.0675C4.3976 16.3532 4.38731 13.1589 5.69246 10.4372M2.85474 20.9361C0.966743 17.0469 0.953029 12.4755 2.81474 8.57607M11.1239 21.4721H8.2856V20.7298L10.225 18.8464V13.7281C10.225 10.8046 11.9913 8.44807 14.7879 7.78636V7.12807C14.7879 6.37493 15.4599 5.71436 16.2313 5.71436C17.001 5.71436 17.6747 6.37493 17.6747 7.12807V7.78636C19.4879 8.21493 20.9136 9.35664 21.6925 10.9035C22.1142 11.7424 22.3467 12.7001 22.3467 13.7281V18.8464L24.2856 20.7298V21.4721H11.1239Z" stroke="#181818"/>
<mask id="mask0" mask-type="alpha" maskUnits="userSpaceOnUse" x="14" y="23" width="5" height="3">
<path d="M14 23.4285H18.6989V25.8163H14V23.4285Z" fill="white"/>
</mask>
<g mask="url(#mask0)">
<path fill-rule="evenodd" clip-rule="evenodd" d="M14 23.6936C14 24.9376 15.0714 25.8165 16.4114 25.8165C17.7303 25.8165 18.6989 24.9525 18.6989 23.6936V23.4285H14V23.6936Z" fill="#181818"/>
</g>
</svg>
