<svg width="32" height="32" viewBox="0 0 32 32" fill="none" xmlns="http://www.w3.org/2000/svg">
<path fill-rule="evenodd" clip-rule="evenodd" d="M16.0034 19.3019C16.5548 19.3019 17.0005 19.7488 17.0005 20.2985C17.0005 20.8499 16.5548 21.2956 16.0034 21.2956C15.4525 21.2956 15.0079 20.8499 15.0079 20.2985C15.0079 19.7488 15.4525 19.3019 16.0034 19.3019ZM16.3605 18.3745C16.3405 18.5671 15.6736 18.5374 15.6571 18.3745L15.0125 11.8134C14.9588 11.2636 15.3611 10.7739 15.9108 10.7191C16.4611 10.6659 16.9508 11.0682 17.0045 11.6179C17.0114 11.6831 17.0096 11.7516 17.0045 11.8134L16.3605 18.3745Z" fill="#181818"/>
<path d="M13.9416 19.7585C12.6102 19.0276 11.7079 17.6128 11.7079 15.9865C11.7079 14.3762 12.5948 12.9739 13.9062 12.2374M18.1108 12.2374C19.4216 12.9745 20.3085 14.3762 20.3085 15.9865C20.3085 17.6156 19.4028 19.0322 18.0679 19.7625M6.89248 8.85735H9.68791M20.2473 8.45621L19.8856 7.74421C19.6616 7.30307 19.2085 7.14307 18.7142 7.14307H13.1765C12.6811 7.14307 12.2291 7.30307 12.0045 7.74421L11.6433 8.45621C11.2639 9.20307 10.4982 10.0002 9.66048 10.0002H6.79591C5.66048 10.0002 4.85706 10.5939 4.85706 11.7299V21.7145C4.85706 22.8505 5.66048 23.7145 6.79591 23.7145H25.0942C26.2302 23.7145 27.1428 22.8505 27.1428 21.7145V11.7299C27.1428 10.5939 26.2302 10.0002 25.0942 10.0002H22.2296C21.3925 10.0002 20.6262 9.20307 20.2473 8.45621Z" stroke="#181818"/>
</svg>
