<svg width="32" height="32" viewBox="0 0 32 32" fill="none" xmlns="http://www.w3.org/2000/svg">
<path d="M2.28572 17.1431H16H29.7143M16 15.4288V5.14307" stroke="#181818"/>
<path d="M2.90611 15.4287C3.48526 8.70525 9.12641 3.42871 16 3.42871C22.8735 3.42871 28.5147 8.70525 29.0938 15.4287" stroke="#181818"/>
<path d="M9.26466 28.556H8.33051V22.3635L6.45718 23.0515V22.2078L9.11901 21.2084H9.26466V28.556Z" fill="#181818"/>
<path d="M15.6709 23.152C15.6709 23.517 15.5738 23.8417 15.3796 24.1263C15.1888 24.4109 14.9293 24.6336 14.6012 24.7943C14.9829 24.9584 15.2842 25.1978 15.5052 25.5125C15.7295 25.8272 15.8417 26.1838 15.8417 26.5822C15.8417 27.2151 15.6274 27.719 15.1988 28.094C14.7736 28.469 14.2128 28.6565 13.5163 28.6565C12.8132 28.6565 12.249 28.469 11.8238 28.094C11.4019 27.7156 11.191 27.2117 11.191 26.5822C11.191 26.1872 11.2981 25.8306 11.5124 25.5125C11.7301 25.1944 12.0297 24.9533 12.4114 24.7893C12.0866 24.6286 11.8305 24.4059 11.643 24.1213C11.4555 23.8367 11.3618 23.5136 11.3618 23.152C11.3618 22.5359 11.5593 22.0471 11.9544 21.6855C12.3495 21.3239 12.8701 21.1431 13.5163 21.1431C14.1592 21.1431 14.6782 21.3239 15.0733 21.6855C15.4717 22.0471 15.6709 22.5359 15.6709 23.152ZM14.9125 26.5622C14.9125 26.1537 14.782 25.8205 14.5208 25.5627C14.263 25.3049 13.9248 25.176 13.5063 25.176C13.0878 25.176 12.7513 25.3032 12.4968 25.5577C12.2457 25.8122 12.1201 26.147 12.1201 26.5622C12.1201 26.9773 12.2423 27.3038 12.4868 27.5415C12.7345 27.7792 13.0777 27.8981 13.5163 27.8981C13.9516 27.8981 14.2931 27.7792 14.5409 27.5415C14.7887 27.3004 14.9125 26.974 14.9125 26.5622ZM13.5163 21.9065C13.1514 21.9065 12.8551 22.0203 12.6274 22.248C12.4031 22.4723 12.2909 22.7787 12.2909 23.1671C12.2909 23.5387 12.4014 23.8401 12.6224 24.0711C12.8467 24.2988 13.1447 24.4126 13.5163 24.4126C13.888 24.4126 14.1843 24.2988 14.4053 24.0711C14.6296 23.8401 14.7418 23.5387 14.7418 23.1671C14.7418 22.7954 14.6263 22.4924 14.3952 22.258C14.1642 22.0236 13.8712 21.9065 13.5163 21.9065Z" fill="#181818"/>
<path d="M21.5973 25.4372C21.5973 26.5253 21.4114 27.3339 21.0398 27.8629C20.6681 28.392 20.0872 28.6565 19.297 28.6565C18.5169 28.6565 17.9393 28.3986 17.5643 27.883C17.1893 27.364 16.9951 26.5906 16.9817 25.5627V24.3222C16.9817 23.2474 17.1676 22.4489 17.5392 21.9265C17.9109 21.4042 18.4935 21.1431 19.287 21.1431C20.0738 21.1431 20.6531 21.3959 21.0247 21.9014C21.3964 22.4037 21.5872 23.1805 21.5973 24.2318V25.4372ZM20.6681 24.1665C20.6681 23.3797 20.5576 22.8071 20.3366 22.4489C20.1157 22.0873 19.7658 21.9065 19.287 21.9065C18.8115 21.9065 18.465 22.0856 18.2474 22.4438C18.0297 22.8021 17.9176 23.3529 17.9109 24.0962V25.5828C17.9109 26.373 18.0247 26.9572 18.2524 27.3356C18.4834 27.7106 18.8316 27.8981 19.297 27.8981C19.7557 27.8981 20.0956 27.7206 20.3166 27.3657C20.5409 27.0108 20.6581 26.4517 20.6681 25.6883V24.1665Z" fill="#181818"/>
<path d="M25.5398 23.5889C25.5398 24.1313 25.4125 24.5482 25.1581 24.8395C24.9036 25.1308 24.5403 25.2764 24.0682 25.2764C23.6028 25.2764 23.2396 25.1325 22.9784 24.8445C22.7172 24.5566 22.585 24.1447 22.5816 23.609V22.8959C22.5816 22.3501 22.7105 21.9316 22.9683 21.6403C23.2295 21.349 23.5928 21.2033 24.0582 21.2033C24.5303 21.2033 24.8936 21.3473 25.148 21.6353C25.4025 21.9232 25.5331 22.33 25.5398 22.8557V23.5889ZM24.7513 22.8205C24.7513 22.1777 24.5202 21.8562 24.0582 21.8562C23.6129 21.8562 23.3835 22.1576 23.3701 22.7603V23.6592C23.3701 24.3088 23.6028 24.6336 24.0682 24.6336C24.5102 24.6336 24.7379 24.3306 24.7513 23.7245V22.8205Z" fill="#181818"/>
</svg>
