<svg width="32" height="32" viewBox="0 0 32 32" fill="none" xmlns="http://www.w3.org/2000/svg">
<path fill-rule="evenodd" clip-rule="evenodd" d="M14.8101 9.82485L9.86491 14.7666L14.8101 9.82485ZM16.8981 22.0997L22.0421 17.0854L16.8981 22.0997ZM15.9363 8.74771L15.9186 8.76599L23.1146 15.9471L23.1249 15.9363L15.9363 8.74771ZM8.72034 15.9643L15.9203 23.1414L12.8826 26.1791C11.7666 27.2946 9.95748 27.2946 8.84206 26.1791L5.69406 23.0306C4.57806 21.9151 4.57806 20.106 5.69406 18.9906L8.72034 15.9643ZM15.9363 8.74771L18.9906 5.69399C20.1061 4.57799 21.9152 4.57799 23.0306 5.69399L26.1792 8.84199C27.2946 9.95742 27.2946 11.7666 26.1792 12.8826L23.1249 15.9363L26.1792 18.9906C27.2946 20.106 27.2946 21.9151 26.1792 23.0306L23.0306 26.1791C21.9152 27.2946 20.1061 27.2946 18.9906 26.1791L5.69406 12.8826C4.57806 11.7666 4.57806 9.95742 5.69406 8.84199L8.42206 6.11399L8.84206 5.69399C9.95748 4.57799 11.7666 4.57799 12.8826 5.69399L13.4272 6.23857L15.9363 8.74771Z" stroke="#181818"/>
<path fill-rule="evenodd" clip-rule="evenodd" d="M12.2222 8.22217C12.5376 8.22217 12.7936 8.47817 12.7936 8.7936C12.7936 9.10903 12.5376 9.36503 12.2222 9.36503C11.9067 9.36503 11.6507 9.10903 11.6507 8.7936C11.6507 8.47817 11.9067 8.22217 12.2222 8.22217ZM10.5079 9.93645C10.8233 9.93645 11.0793 10.1925 11.0793 10.5079C11.0793 10.8233 10.8233 11.0793 10.5079 11.0793C10.1925 11.0793 9.93645 10.8233 9.93645 10.5079C9.93645 10.1925 10.1925 9.93645 10.5079 9.93645ZM8.7936 11.6507C9.10903 11.6507 9.36503 11.9067 9.36503 12.2222C9.36503 12.5376 9.10903 12.7936 8.7936 12.7936C8.47817 12.7936 8.22217 12.5376 8.22217 12.2222C8.22217 11.9067 8.47817 11.6507 8.7936 11.6507ZM23.0793 19.0793C23.3953 19.0793 23.6507 19.3347 23.6507 19.6507C23.6507 19.9667 23.3953 20.2222 23.0793 20.2222C22.7633 20.2222 22.5079 19.9667 22.5079 19.6507C22.5079 19.3347 22.7633 19.0793 23.0793 19.0793ZM21.365 20.7936C21.681 20.7936 21.9365 21.049 21.9365 21.365C21.9365 21.681 21.681 21.9365 21.365 21.9365C21.049 21.9365 20.7936 21.681 20.7936 21.365C20.7936 21.049 21.049 20.7936 21.365 20.7936ZM19.6507 22.5079C19.9667 22.5079 20.2222 22.7633 20.2222 23.0793C20.2222 23.3953 19.9667 23.6507 19.6507 23.6507C19.3347 23.6507 19.0793 23.3953 19.0793 23.0793C19.0793 22.7633 19.3347 22.5079 19.6507 22.5079ZM12.2222 23.6507C11.9067 23.6507 11.6507 23.3953 11.6507 23.0793C11.6507 22.7633 11.9067 22.5079 12.2222 22.5079C12.5376 22.5079 12.7936 22.7633 12.7936 23.0793C12.7936 23.3953 12.5376 23.6507 12.2222 23.6507ZM10.5079 21.9365C10.1925 21.9365 9.93645 21.681 9.93645 21.365C9.93645 21.049 10.1925 20.7936 10.5079 20.7936C10.8233 20.7936 11.0793 21.049 11.0793 21.365C11.0793 21.681 10.8233 21.9365 10.5079 21.9365ZM8.7936 20.2222C8.47817 20.2222 8.22217 19.9667 8.22217 19.6507C8.22217 19.3347 8.47817 19.0793 8.7936 19.0793C9.10903 19.0793 9.36503 19.3347 9.36503 19.6507C9.36503 19.9667 9.10903 20.2222 8.7936 20.2222ZM23.0793 12.7936C22.7633 12.7936 22.5079 12.5376 22.5079 12.2222C22.5079 11.9067 22.7633 11.6507 23.0793 11.6507C23.3953 11.6507 23.6507 11.9067 23.6507 12.2222C23.6507 12.5376 23.3953 12.7936 23.0793 12.7936ZM21.365 11.0793C21.049 11.0793 20.7936 10.8233 20.7936 10.5079C20.7936 10.1925 21.049 9.93645 21.365 9.93645C21.681 9.93645 21.9365 10.1925 21.9365 10.5079C21.9365 10.8233 21.681 11.0793 21.365 11.0793ZM19.6507 9.36503C19.3347 9.36503 19.0793 9.10903 19.0793 8.7936C19.0793 8.47817 19.3347 8.22217 19.6507 8.22217C19.9667 8.22217 20.2222 8.47817 20.2222 8.7936C20.2222 9.10903 19.9667 9.36503 19.6507 9.36503Z" fill="#181818"/>
</svg>
