<svg width="32" height="32" viewBox="0 0 32 32" fill="none" xmlns="http://www.w3.org/2000/svg">
<path fill-rule="evenodd" clip-rule="evenodd" d="M26.0138 23.1338L27.8979 25.0178L27.2916 25.6235L25.4076 23.74L23.5247 25.6235L22.9184 25.0178L24.8019 23.1338L22.9184 21.2503L23.5247 20.644L25.4076 22.5275L27.2916 20.644L27.8979 21.2503L26.0138 23.1338ZM25.2053 9.08747L29.2173 5.60004L25.5321 10.1732L25.2053 10.5795L24.8139 10.1732L22.5721 7.84461L23.2899 7.09718L25.2053 9.08747ZM7.39328 11.1572C7.66185 11.1629 7.93042 11.1709 8.19956 11.1823C8.41613 11.1915 8.63271 11.2052 8.84871 11.2195C9.13728 11.2383 9.42528 11.264 9.70928 11.3206C9.95671 11.3703 10.195 11.444 10.4167 11.5686C10.651 11.7 10.839 11.8795 10.979 12.108C11.1276 12.3498 11.2104 12.616 11.2641 12.8926C11.307 13.1115 11.3304 13.3338 11.3481 13.5566C11.3698 13.8183 11.3853 14.08 11.3967 14.3429C11.411 14.656 11.4207 14.9698 11.4253 15.2835C11.4293 15.5355 11.4304 15.788 11.4276 16.04C11.4258 16.2372 11.4218 16.4332 11.4156 16.6303C11.407 16.8749 11.3961 17.1195 11.383 17.3629C11.3733 17.5509 11.3618 17.7395 11.3464 17.9269C11.3201 18.2383 11.2836 18.5486 11.1933 18.8498C11.099 19.1663 10.9516 19.4515 10.703 19.676C10.5441 19.82 10.3613 19.9252 10.1618 20.0012C9.92528 20.0915 9.67899 20.1429 9.42813 20.1755C9.18585 20.208 8.94242 20.2246 8.69785 20.24C8.49328 20.252 8.28814 20.2629 8.08356 20.2715C7.88356 20.2806 7.68356 20.2852 7.48413 20.2903C7.09271 20.3012 6.70128 20.2978 6.30985 20.2932C6.05499 20.2898 5.79956 20.2795 5.54471 20.268C5.32185 20.2589 5.09899 20.2458 4.87613 20.2315C4.55613 20.2103 4.23613 20.1829 3.92185 20.1115C3.70356 20.0618 3.49156 19.9915 3.29613 19.8806C3.02071 19.724 2.81213 19.504 2.66871 19.2223C2.54013 18.9692 2.47099 18.6978 2.42642 18.4195C2.38985 18.1926 2.37099 17.9635 2.35556 17.7349C2.33956 17.5052 2.32642 17.276 2.31671 17.0469C2.30928 16.8646 2.30356 16.6835 2.29728 16.5018C2.28528 16.1258 2.28471 15.7503 2.28756 15.3749C2.28928 15.1749 2.29442 14.9749 2.30071 14.7749C2.30699 14.5818 2.31442 14.388 2.32585 14.1949C2.34013 13.9543 2.35271 13.7132 2.37385 13.4726C2.39842 13.2012 2.43213 12.9315 2.50242 12.6675C2.57213 12.4103 2.67442 12.1686 2.84071 11.9578C3.03728 11.708 3.29328 11.5429 3.58928 11.4349C3.84413 11.3423 4.10813 11.2943 4.37556 11.2629C4.61671 11.2343 4.85842 11.2183 5.10014 11.2052C5.32414 11.1926 5.54814 11.1818 5.77214 11.1726C6.12414 11.1589 6.47613 11.1515 6.82813 11.1566C7.01613 11.1566 7.20471 11.1532 7.39328 11.1572Z" fill="#181818"/>
<path d="M21.1437 8.29779H18.0008C17.37 8.29779 16.858 8.80979 16.858 9.44065V15.7264M16.858 15.7264H12.5723M16.858 15.7264V22.0121C16.858 22.6429 17.37 23.1549 18.0008 23.1549H21.1437" stroke="#181818"/>
</svg>
