<svg width="32" height="32" viewBox="0 0 32 32" fill="none" xmlns="http://www.w3.org/2000/svg">
<path fill-rule="evenodd" clip-rule="evenodd" d="M24 8H27.4286C27.7446 8 28 8.256 28 8.57143V11.4286C28 11.744 27.7446 12 27.4286 12H24C23.684 12 23.4286 11.744 23.4286 11.4286V8.57143C23.4286 8.256 23.684 8 24 8Z" fill="#181818"/>
<path d="M24.2857 7.42857V7.02686C24.2857 6.41029 24.5514 6 25.3286 6H26.088C26.8669 6 27.1429 6.41029 27.1429 7.02686V7.42857M13.7143 26.7571C11.0611 25.4954 9.22858 22.7914 9.22858 19.6583V19.1074C9.22858 18.2629 9.91258 17.5794 10.7572 17.5794C11.6023 17.5794 12.2869 18.2629 12.2869 19.1074M24.2857 19.7509V16.028C24.2857 15.1829 23.4594 14.4989 22.6143 14.4989C21.7686 14.4989 21.0846 15.1829 21.0846 16.028V16.7303V14.4989C21.0846 13.6543 20.4006 12.9691 19.556 12.9691C18.7097 12.9691 18.0263 13.6543 18.0263 14.4989M15.2806 12.0423C15.5594 11.6766 16.0006 11.4406 16.4977 11.4406C17.3429 11.4406 18.0263 12.124 18.0263 12.9691V16.7303M12.2857 19.8606V8.38343C12.2857 7.53886 12.8691 6.77543 13.7143 6.77543C14.56 6.77543 15.1429 7.468 15.1429 8.44686V16.864M5.42858 6.57143C6.05944 6.57143 6.57144 7.08343 6.57144 7.71429C6.57144 8.34514 6.05944 8.85714 5.42858 8.85714C4.79772 8.85714 4.28572 8.34514 4.28572 7.71429C4.28572 7.08343 4.79772 6.57143 5.42858 6.57143ZM9.42858 6.57143C10.0594 6.57143 10.5714 7.08343 10.5714 7.71429C10.5714 8.34514 10.0594 8.85714 9.42858 8.85714C8.79772 8.85714 8.28572 8.34514 8.28572 7.71429C8.28572 7.08343 8.79772 6.57143 9.42858 6.57143Z" stroke="#181818"/>
</svg>
