<svg width="32" height="32" viewBox="0 0 32 32" fill="none" xmlns="http://www.w3.org/2000/svg">
<path d="M14 5.1795V4.53893C14 4.07836 14.3977 3.71436 14.8572 3.71436H17.1429C17.6023 3.71436 18 4.07836 18 4.53893V5.1795M10.3103 6.5715H21.7143C22.1709 6.5715 22.5714 6.8035 22.5714 7.26236V24.5109C22.5714 24.9698 22.1709 25.3955 21.7143 25.3955H10.3103C9.8543 25.3955 9.42859 24.9698 9.42859 24.5109V7.26236C9.42859 6.8035 9.8543 6.5715 10.3103 6.5715Z" stroke="#181818"/>
<path fill-rule="evenodd" clip-rule="evenodd" d="M12.6451 15.8646H15.8257L13.7366 20.9389L19.6491 14.6063L16.4914 14.6098L17.9743 10.4326L12.6451 15.8646Z" fill="#181818"/>
</svg>
