<svg xmlns="http://www.w3.org/2000/svg" fill="currentColor" viewBox="0 0 56 56" width="1em" height="1em" class="icon-56 responsive"><path fill="currentColor" d="M38.5574 39.7536V31.6339H37.5149L35.2215 32.6974V33.8542L37.5275 32.7711V39.7536H35.5991V40.5398H40.6543V39.7536H38.5574Z"></path><path fill="currentColor" fill-rule="evenodd" d="M30.6398 26.0497C30.1413 25.2686 29.4012 24.883 28.4193 24.883C27.4451 24.883 26.7074 25.2686 26.209 26.0497C25.708 26.8283 25.4587 27.9753 25.4587 29.5079C25.4587 31.0282 25.708 32.1801 26.209 32.9563C26.7074 33.7349 27.4451 34.1205 28.4193 34.1205C29.4012 34.1205 30.1413 33.7349 30.6398 32.9563C31.1408 32.1801 31.3925 31.0282 31.3925 29.5079C31.3925 27.9753 31.1408 26.8283 30.6398 26.0497ZM27.1027 32.1801L30.0255 27.7174C30.1036 28.2503 30.1489 28.8472 30.1489 29.5079C30.1489 30.7433 30.0054 31.6594 29.7234 32.2612C29.4339 32.8679 29.0059 33.165 28.4193 33.165C27.8504 33.165 27.4098 32.8384 27.1027 32.1801ZM27.1329 26.7423C27.4149 26.1405 27.8453 25.8409 28.4193 25.8409C28.948 25.8409 29.3685 26.1086 29.6806 26.6367L26.8207 31.0823C26.7427 30.591 26.7049 30.0605 26.7049 29.5079C26.7049 28.2651 26.8459 27.349 27.1329 26.7423Z" clip-rule="evenodd"></path><path fill="currentColor" fill-rule="evenodd" d="M20.3229 16.8384C19.8244 16.0573 19.0843 15.6693 18.1024 15.6693C17.1307 15.6693 16.3905 16.0573 15.8895 16.8384C15.3885 17.6194 15.1443 18.7689 15.1443 20.2917C15.1443 21.8169 15.3885 22.9664 15.8895 23.7475C16.3905 24.526 17.1307 24.919 18.1024 24.919C19.0843 24.919 19.8244 24.526 20.3229 23.7475C20.8239 22.9664 21.0756 21.8169 21.0756 20.2917C21.0756 18.7689 20.8239 17.6194 20.3229 16.8384ZM16.7858 22.9664L19.7086 18.5061C19.7867 19.044 19.8295 19.6335 19.8295 20.2917C19.8295 21.5271 19.6885 22.4482 19.404 23.0524C19.1195 23.6566 18.689 23.9562 18.1024 23.9562C17.5335 23.9562 17.0954 23.6271 16.7858 22.9664ZM16.816 17.5335C17.0979 16.9293 17.5284 16.6296 18.1024 16.6296C18.6311 16.6296 19.0541 16.8973 19.3637 17.4254L16.5038 21.8734C16.4258 21.3822 16.3905 20.8566 16.3905 20.2917C16.3905 19.0563 16.5315 18.1352 16.816 17.5335Z" clip-rule="evenodd"></path><path fill="currentColor" fill-rule="evenodd" d="M39.9403 16.8013C39.4418 16.0203 38.7017 15.6322 37.7199 15.6322C36.7456 15.6322 36.0104 16.0203 35.5069 16.8013C35.0085 17.5823 34.7592 18.7269 34.7592 20.2546C34.7592 21.7774 35.0085 22.9293 35.5069 23.7055C36.0104 24.489 36.7456 24.8746 37.7199 24.8746C38.7017 24.8746 39.4418 24.489 39.9403 23.7055C40.4388 22.9293 40.6905 21.7774 40.6905 20.2546C40.6905 18.7269 40.4388 17.5823 39.9403 16.8013ZM36.4032 22.9293L39.321 18.469C39.4041 19.0044 39.4494 19.5964 39.4494 20.2546C39.4494 21.49 39.3059 22.4135 39.0214 23.0128C38.7344 23.6146 38.3039 23.9191 37.7199 23.9191C37.1509 23.9191 36.7103 23.59 36.4032 22.9293ZM36.4334 17.4915C36.7128 16.8922 37.1459 16.5876 37.7199 16.5876C38.2485 16.5876 38.6715 16.8529 38.9811 17.3834L36.1212 21.8339C36.0432 21.3427 36.0054 20.8146 36.0054 20.2546C36.0054 19.0167 36.1464 18.0957 36.4334 17.4915Z" clip-rule="evenodd"></path><path fill="currentColor" d="M29.452 17.1002V9.20623H28.2134L25.9174 10.2722V11.4339L28.226 10.3483V17.1002H26.2976V18.1121H31.3553V17.1002H29.452Z"></path><path fill="currentColor" d="M19.2284 31.6339V39.7536H21.3253V40.5398H16.2701V39.7536H18.1985V32.7711L15.8925 33.8542V32.6974L18.1859 31.6339H19.2284Z"></path><path fill="currentColor" fill-rule="evenodd" d="M27.9973 6C15.8484 6 6 15.8513 6 28C6 40.1514 15.8485 50 27.9973 50C40.1487 50 50 40.1516 50 28C50 15.8511 40.1488 6 27.9973 6ZM7.41147 25.6754C8.56682 15.3287 17.3428 7.28249 27.9973 7.28249C38.4068 7.28249 47.0237 14.9591 48.4956 24.9577C47.7632 25.0713 47.1931 25.4478 46.7813 26.0899C46.2828 26.8685 46.0311 28.0179 46.0311 29.5456C46.0311 31.066 46.2828 32.2204 46.7813 32.994C47.0636 33.4342 47.4203 33.7503 47.8527 33.9424C45.4205 42.0793 38.1222 48.1153 29.335 48.675V40.8923H28.2925L25.999 41.9558V43.1127L28.3051 42.0295V48.7153C28.2027 48.7168 28.1001 48.7175 27.9973 48.7175C18.55 48.7175 10.5798 42.3933 8.08941 33.7458H12.3529L12.3529 32.7339H10.4496L10.4497 24.8399H9.21099L7.41147 25.6754ZM7.31221 26.8809C7.29248 27.2514 7.28249 27.6245 7.28249 28C7.28249 29.6287 7.47038 31.2135 7.82565 32.7339H9.22357V25.982L7.31221 26.8809ZM48.1394 32.8805C48.2923 32.2471 48.4161 31.6025 48.5094 30.9479L47.6775 32.2204C47.8078 32.4997 47.9617 32.7197 48.1394 32.8805ZM48.6883 29.1098C48.7077 28.7423 48.7175 28.3723 48.7175 28C48.7175 27.3008 48.6828 26.6096 48.6152 25.9282C48.2259 26.0365 47.9234 26.3223 47.7052 26.7801C47.4207 27.3843 47.2772 28.3053 47.2772 29.5456C47.2772 30.1056 47.3175 30.6337 47.393 31.1225L48.6883 29.1098Z" clip-rule="evenodd"></path></svg>