<svg xmlns="http://www.w3.org/2000/svg" fill="currentColor" viewBox="0 0 56 56" width="1em" height="1em" class="icon-56"><path fill="currentColor" fill-rule="evenodd" d="M29.2051 18.287L32.2636 21.368L29.2051 24.4489V18.287ZM29.2051 37.257L32.2636 34.1761L29.2051 31.0951V37.257ZM25.9281 27.794L19.2868 21.0599L21.2093 19.1232L26.4961 24.4489V11.6849L36.1085 21.368L29.7731 27.794L36.1522 34.2201L26.5398 43.9032V31.0951L21.2093 36.4208L19.2868 34.4842L25.9281 27.794ZM27.7195 46.5C35.8464 46.5 41.439 42.6268 41.439 27.75C41.439 12.9173 35.8464 9 27.7195 9C19.5927 9.04401 14 12.9173 14 27.794C14 42.6268 19.5927 46.5 27.7195 46.5Z" clip-rule="evenodd"></path></svg>