<svg width="32" height="32" viewBox="0 0 32 32" fill="none" xmlns="http://www.w3.org/2000/svg">
<path d="M20.1304 25.1739L20.4625 25.8547C20.7858 26.4155 20.4414 27.1427 19.7936 27.1427H11.9569C11.3079 27.1427 10.9026 26.4155 11.2271 25.8547L11.6373 25.1445M14.5714 5.4609C14.5714 5.80865 14.8483 5.99986 15.1948 5.99986H16.8744C17.2221 5.99986 17.4286 5.80865 17.4286 5.4609M5.99495 14.5713C5.99495 9.04801 10.4717 4.57129 15.9949 4.57129C21.5171 4.57129 25.995 9.04801 25.995 14.5713C25.995 20.0934 21.5171 24.5713 15.9949 24.5713C10.4717 24.5713 5.99495 20.0934 5.99495 14.5713ZM11.4286 14.6239C11.4286 17.0203 13.3718 18.9623 15.7682 18.9623C18.1645 18.9623 20.1065 17.0203 20.1065 14.6239C20.1065 12.2276 18.1645 10.2856 15.7682 10.2856C13.3718 10.2856 11.4286 12.2276 11.4286 14.6239Z" stroke="#181818"/>
<path fill-rule="evenodd" clip-rule="evenodd" d="M13.7143 14.6541C13.7143 13.5044 14.6473 12.5713 15.7971 12.5713C16.9482 12.5713 17.8788 13.5044 17.8788 14.6541C17.8788 15.8039 16.9482 16.737 15.7971 16.737C14.6473 16.737 13.7143 15.8039 13.7143 14.6541Z" fill="#181818"/>
</svg>
