<svg width="32" height="32" viewBox="0 0 32 32" fill="none" xmlns="http://www.w3.org/2000/svg">
<path d="M14.5803 12.5197C14.5352 12.5049 14.3889 12.5197 14.3409 12.5197C11.3152 12.5197 8.86263 14.9723 8.86263 17.998C8.86263 21.0237 11.3152 23.4769 14.3409 23.4769C17.3666 23.4769 19.8192 21.0237 19.8192 17.998C19.8192 17.95 19.8341 17.7723 19.8192 17.7272M15.9998 29.1466C9.05692 29.1466 3.42834 23.5186 3.42834 16.5752C3.42834 9.6323 9.05692 4.00372 15.9998 4.00372C22.9432 4.00372 28.5712 9.6323 28.5712 16.5752C28.5712 23.5186 22.9432 29.1466 15.9998 29.1466Z" stroke="#181818"/>
<path fill-rule="evenodd" clip-rule="evenodd" d="M15.908 18.6863C15.8685 19.1068 15.7131 19.4354 15.4423 19.6714C15.1708 19.9068 14.8108 20.0245 14.3611 20.0245C14.0468 20.0245 13.7703 19.9503 13.5308 19.8011C13.2914 19.652 13.1074 19.44 12.9771 19.1657C12.8474 18.8908 12.7794 18.5725 12.7737 18.2097V17.8411C12.7737 17.4691 12.84 17.1411 12.9714 16.8577C13.1034 16.5743 13.2925 16.356 13.5388 16.2023C13.7857 16.0485 14.0708 15.972 14.3937 15.972C14.8291 15.972 15.1794 16.0903 15.4445 16.3268C15.7103 16.5634 15.8645 16.8977 15.908 17.3291H15.2257C15.1931 17.0457 15.1103 16.8411 14.9777 16.716C14.8451 16.5903 14.6503 16.5274 14.3937 16.5274C14.096 16.5274 13.8668 16.636 13.7068 16.8537C13.5474 17.0714 13.4657 17.3903 13.4617 17.8114V18.1605C13.4617 18.5868 13.5383 18.9125 13.6908 19.136C13.8434 19.36 14.0668 19.472 14.3611 19.472C14.6303 19.472 14.8325 19.4114 14.968 19.2908C15.1034 19.1697 15.1891 18.968 15.2257 18.6863H15.908ZM18.7731 15.2805C18.4445 14.7463 18.0228 14.2765 17.5303 13.8931V13.7337C17.5343 13.3091 17.6188 12.9811 17.7863 12.7485C17.9531 12.5171 18.1845 12.4005 18.4811 12.4005C18.7845 12.4005 19.0183 12.5171 19.184 12.7503C19.3491 12.9834 19.432 13.3183 19.432 13.7554V13.9611C19.432 14.4051 19.3497 14.7428 19.1863 14.9743C19.0794 15.1263 18.9411 15.2285 18.7731 15.2805ZM19.0491 15.7925C19.1525 15.756 19.2508 15.7085 19.344 15.6503C19.592 15.4937 19.7828 15.2697 19.9171 14.9783C20.0503 14.6863 20.1171 14.3474 20.1171 13.9611V13.7417C20.1154 13.3571 20.0468 13.0194 19.9114 12.7297C19.776 12.44 19.584 12.2183 19.3354 12.0634C19.0868 11.9091 18.8023 11.832 18.4811 11.832C18.1594 11.832 17.8743 11.9103 17.6263 12.0663C17.3777 12.2223 17.1857 12.448 17.0491 12.7423C16.9508 12.9548 16.888 13.1908 16.8605 13.4508C16.1514 13.0565 15.3405 12.824 14.4771 12.8023C14.944 11.0268 16.56 9.71826 18.4811 9.71826C20.7674 9.71826 22.6211 11.5714 22.6211 13.8583C22.6211 15.78 21.312 17.3954 19.5377 17.8623C19.5183 17.124 19.3457 16.424 19.0491 15.7925Z" fill="#181818"/>
<path fill-rule="evenodd" clip-rule="evenodd" d="M15.9841 27.4642L16.0001 30.8608L15.9841 27.4642ZM15.9841 2.32135V5.71792V2.32135ZM5.12699 16.5751H1.71442H5.12699ZM30.2858 16.5751H26.8733H30.2858Z" stroke="#181818" stroke-width="2"/>
</svg>
