<svg width="32" height="32" viewBox="0 0 32 32" fill="none" xmlns="http://www.w3.org/2000/svg">
<path d="M25.7144 16.5713V21.7661" stroke="#181818"/>
<path d="M24 14.8574L24 24.0003" stroke="#181818"/>
<path d="M22.2857 13.7144V25.4027" stroke="#181818"/>
<path d="M20.5715 16L20.5715 22.8571" stroke="#181818"/>
<path d="M18.8572 17.7144L18.8572 21.1429" stroke="#181818"/>
<path d="M27.4286 16L27.4286 22.8571" stroke="#181818"/>
<path d="M17.1429 18.2856V19.9999" stroke="#181818"/>
<path d="M29.1429 18.2856V20.5714" stroke="#181818"/>
<path d="M13.606 11.8621L14.4336 11.0345L15.2455 4.13316C15.2536 4.06413 15.197 4.0048 15.1277 4.00932C14.316 4.0622 13.1064 4.07876 11.777 4.2069M13.606 11.8621L12.7784 20.1379M13.606 11.8621L11.6136 11.4636C11.5723 11.4553 11.5327 11.484 11.5275 11.5258L10.5116 19.8569C10.5066 19.8975 10.5362 19.9341 10.5769 19.9378L12.7784 20.1379M12.7784 20.1379L13.3991 20.9655L12.788 27.8913C12.7827 27.9516 12.732 27.9966 12.6717 27.9913C9.87706 27.744 4.37207 25.8138 3.88184 19.931V9.7931C4.23275 5.58214 8.39309 4.53306 11.777 4.2069M11.777 4.2069C11.537 4.23114 6.36459 5.03448 6.36459 10.8276V14.3448V17.7296C6.36459 16.971 6.36459 16.6124 6.36459 21.2468C6.36459 27.0399 11.537 27.8433 11.777 27.8675" stroke="#181818"/>
<path fill-rule="evenodd" clip-rule="evenodd" d="M14.8913 8.96856V6.84961H11.9374V7.48245L14.8913 8.96856Z" fill="#181818"/>
</svg>
