<svg width="32" height="32" viewBox="0 0 32 32" fill="none" xmlns="http://www.w3.org/2000/svg">
<path d="M23.4286 17.7235C23.3393 18.6402 23.0099 19.3451 22.4402 19.8381C21.8706 20.327 21.0969 20.5714 20.1192 20.5714C19.4603 20.5714 18.8758 20.4125 18.3657 20.0947C17.8598 19.7729 17.4666 19.3186 17.186 18.7319C16.9055 18.1411 16.7631 17.4668 16.7588 16.709V15.3339C16.7588 14.576 16.897 13.8997 17.1733 13.3048C17.4496 12.7059 17.8428 12.2435 18.3529 11.9175C18.8673 11.5916 19.4561 11.4286 20.1192 11.4286C21.0884 11.4286 21.86 11.6731 22.4339 12.162C23.0077 12.6509 23.3393 13.3517 23.4286 14.2643M8.57144 20.4492V11.5508H11.1412C11.8596 11.5508 12.51 11.7138 13.0923 12.0397C13.6747 12.3657 14.1317 12.8241 14.4633 13.4148C14.7949 14.0015 14.9649 14.6596 14.9734 15.3889V16.5439C14.9734 17.2855 14.8097 17.9537 14.4824 18.5485C14.1593 19.1434 13.7066 19.6079 13.1242 19.942C12.5418 20.2761 11.8914 20.4451 11.173 20.4492H8.57144Z" stroke="#181818"/>
<path fill-rule="evenodd" clip-rule="evenodd" d="M5.44237 11.6248C3.67275 15.8952 4.64994 20.8111 7.91826 24.0801C11.1866 27.3491 16.1023 28.3273 20.3731 26.5585C24.6439 24.7897 27.4286 20.6224 27.4286 15.9998C27.4316 12.9683 26.2289 10.06 24.0855 7.91616C21.9421 5.77232 19.034 4.56897 16.0025 4.57141C11.3799 4.57048 7.212 7.35433 5.44237 11.6248Z" stroke="#181818"/>
</svg>
