<svg width="32" height="32" viewBox="0 0 32 32" fill="none" xmlns="http://www.w3.org/2000/svg">
<path d="M1.71387 9.71429L6.2853 11.7143L1.71387 13.7143V9.71429Z" fill="#242424"/>
<path d="M30.2853 9.71429L25.7139 11.7143L30.2853 13.7143V9.71429Z" fill="#242424"/>
<path d="M1.71387 18.2857L6.2853 20.2857L1.71387 22.2857V18.2857Z" fill="#242424"/>
<path d="M30.2853 18.2857L25.7139 20.2857L30.2853 22.2857V18.2857Z" fill="#242424"/>
<path d="M9.58594 5.88385C9.73104 7.46552 9.94871 13.2237 9.58594 26.1528M22.6559 5.88385C22.5108 7.46552 22.2931 13.2237 22.6559 26.1528" stroke="#242424" stroke-miterlimit="10"/>
<path d="M8.19255 6.64222L9.63709 5.71429H22.4935L23.8659 6.64222V25.8146L22.4935 26.2857H9.57931L8.13477 25.8146L8.19255 6.64222Z" stroke="#242424" stroke-miterlimit="10"/>
<path d="M13.5801 16H18.4204" stroke="#242424" stroke-width="2.11765" stroke-miterlimit="10"/>
</svg>
