<svg width="32" height="32" viewBox="0 0 32 32" fill="none" xmlns="http://www.w3.org/2000/svg">
<path d="M27.1429 24.2858V28.0001H4.85718V24.2858" stroke="#181818"/>
<path d="M9.42859 27.7143V25.4286" stroke="#181818"/>
<path d="M14 27.7143V26" stroke="#181818"/>
<path d="M18.5714 27.7143V25.4286" stroke="#181818"/>
<path d="M23.1429 27.7143V26" stroke="#181818"/>
<path d="M25.7868 5.80451L24.0452 8.32343M15.6553 6.90114V4M5.49621 5.76535L7.31033 8.34011M5.14282 14.8793C7.30961 11.1346 11.3602 8.61499 16 8.61499C20.639 8.61499 24.6896 11.1346 26.8571 14.8793C24.6896 18.6239 20.639 21.1429 16 21.1429C11.3602 21.1429 7.30961 18.6239 5.14282 14.8793Z" stroke="#181818"/>
<path fill-rule="evenodd" clip-rule="evenodd" d="M11.3627 14.8181C11.3627 17.342 13.4091 19.3892 15.9337 19.3892C18.4583 19.3892 20.5048 17.342 20.5048 14.8181C20.5048 12.2935 18.4583 10.2463 15.9337 10.2463C13.4091 10.2463 11.3627 12.2935 11.3627 14.8181ZM16.5051 13.6756C16.5051 12.7288 15.7373 11.9618 14.7913 11.9618C13.8444 11.9618 13.0774 12.7288 13.0774 13.6756C13.0774 14.6217 13.8444 15.3895 14.7913 15.3895C15.7373 15.3895 16.5051 14.6217 16.5051 13.6756Z" fill="#181818"/>
</svg>
