<svg width="32" height="32" viewBox="0 0 32 32" fill="none" xmlns="http://www.w3.org/2000/svg">
<g clip-path="url(#clip0_2529_13687)">
<path d="M20.2468 26.2892L19.7576 25.4331C19.5542 25.077 19.1755 24.8573 18.7654 24.8573H13.8061C13.396 24.8573 13.0173 25.077 12.8138 25.4331L12.328 26.2832M16.2857 1.71483V0.00109863V1.71483ZM16.2857 32.0005V30.2868V32.0005ZM30.3092 15.7144H31.9981H30.3092ZM0.0235138 15.7144H1.71234H0.0235138ZM28.8315 4.28584L30.2773 2.85726L28.8315 4.28584ZM3.99164 4.28584L2.54577 2.85726L3.99164 4.28584ZM30.2773 28.8573L28.8315 27.4287L30.2773 28.8573ZM3.99164 27.4287L2.54577 28.8573L3.99164 27.4287ZM27.2952 11.5392C27.3158 11.8729 27.333 12.2067 27.3484 12.5404C27.3838 13.3244 27.4072 14.1084 27.4198 14.8929C27.429 15.5232 27.4312 16.1535 27.425 16.7844C27.4198 17.2764 27.4112 17.7684 27.3947 18.2598C27.3735 18.8712 27.3461 19.4815 27.3141 20.0918C27.2895 20.5621 27.2604 21.0318 27.221 21.5004C27.1558 22.2792 27.0644 23.0558 26.8398 23.8089C26.6038 24.5998 26.2347 25.3124 25.6135 25.8747C25.2158 26.2347 24.7592 26.4964 24.2598 26.6867C23.6684 26.9135 23.053 27.0404 22.4267 27.1232C21.8204 27.2038 21.2112 27.2467 20.601 27.2832C20.089 27.3147 19.577 27.3409 19.065 27.3638C18.5655 27.3855 18.0661 27.3969 17.5667 27.4107C16.5878 27.4375 15.609 27.4295 14.6307 27.4175C13.993 27.4095 13.3552 27.3827 12.7181 27.3547C12.161 27.3307 11.6038 27.2992 11.0467 27.2621C10.2461 27.2089 9.4461 27.1409 8.66096 26.9632C8.1141 26.8387 7.58553 26.6621 7.09581 26.3844C6.40781 25.9947 5.88724 25.4449 5.52839 24.7398C5.20667 24.1072 5.03353 23.4289 4.9221 22.7324C4.83124 22.1655 4.78324 21.5935 4.74439 21.0204C4.70553 20.4478 4.67181 19.8747 4.64781 19.3009C4.62839 18.8467 4.61467 18.3924 4.59981 17.9381C4.56896 16.9992 4.56781 16.0604 4.57524 15.1215C4.57924 14.6215 4.59239 14.1215 4.60781 13.6221C4.62381 13.1381 4.64267 12.6547 4.67067 12.1712C4.70553 11.5695 4.73753 10.9667 4.79124 10.3655C4.85181 9.68666 4.93639 9.01237 5.11296 8.35295C5.28553 7.71009 5.54267 7.10552 5.95753 6.57866C6.44953 5.95466 7.0901 5.54152 7.8301 5.27237C8.4661 5.04037 9.1261 4.92037 9.79524 4.84095C10.3975 4.77009 11.0015 4.73009 11.6067 4.69637C12.1667 4.66552 12.7267 4.63809 13.2867 4.61637C14.1661 4.58152 15.0461 4.56323 15.9261 4.57523C16.397 4.57523 16.8678 4.56723 17.3381 4.57695C18.0107 4.59066 18.6827 4.6118 19.3547 4.6398C19.8964 4.66266 20.437 4.69809 20.9775 4.73295C21.3821 4.75923 21.7855 4.79066 22.1878 4.83809L22.4267 4.87695C23.053 4.9598 23.6684 5.08666 24.2598 5.31294C24.7592 5.5038 25.2158 5.76552 25.6135 6.12552C26.2347 6.6878 26.6038 7.40037 26.8398 8.19123C27.0644 8.94437 27.1558 9.72037 27.221 10.4998C27.2604 10.9684 27.2707 11.0695 27.2952 11.5392Z" stroke="#181818"/>
<path d="M12.328 26.2831L12.8138 25.433C13.0173 25.0769 13.3959 24.8572 13.8061 24.8572H18.7653C19.1755 24.8572 19.5541 25.0769 19.7576 25.433L20.2468 26.2891" stroke="#181818"/>
<path fill-rule="evenodd" clip-rule="evenodd" d="M17.3382 4.57704C18.0105 4.59077 18.6827 4.6117 19.3545 4.63993C19.896 4.66272 20.437 4.69795 20.9779 4.73291C21.6993 4.7795 22.4189 4.84342 23.1291 4.98589C23.7473 5.10991 24.3441 5.2949 24.8976 5.60535C25.4832 5.93381 25.9529 6.38236 26.3041 6.95404C26.6754 7.55865 26.8817 8.22392 27.0163 8.91504C27.1233 9.46375 27.1819 10.0183 27.227 10.575C27.2801 11.2295 27.3187 11.8849 27.3484 12.5408C27.3839 13.3244 27.4075 14.1084 27.4195 14.893C27.4291 15.5234 27.4313 16.1538 27.4249 16.7842C27.4199 17.2761 27.4113 17.7681 27.3943 18.2597C27.3733 18.8708 27.346 19.4817 27.314 20.0922C27.2895 20.562 27.2605 21.0317 27.2212 21.5004C27.1558 22.2797 27.0642 23.0558 26.8397 23.8089C26.604 24.5999 26.2341 25.3122 25.6135 25.8747C25.2162 26.2348 24.759 26.4964 24.2603 26.687C23.6685 26.9131 23.053 27.0405 22.4267 27.1235C21.8204 27.2039 21.211 27.2465 20.6009 27.2836C20.0889 27.3146 19.5769 27.3409 19.0645 27.3635C18.5652 27.3856 18.0657 27.3971 17.5662 27.4108C16.5877 27.4377 15.6091 27.4294 14.6307 27.4175C13.993 27.4097 13.3554 27.3826 12.7181 27.3551C12.1607 27.3311 11.6035 27.2993 11.0468 27.2623C10.2459 27.2091 9.44626 27.1411 8.66094 26.9629C8.11407 26.8389 7.58573 26.6624 7.09566 26.3846C6.40782 25.9947 5.88685 25.4451 5.52837 24.7401C5.20644 24.107 5.03356 23.4292 4.92205 22.7328C4.83118 22.1655 4.78312 21.5936 4.74429 21.0207C4.70547 20.4478 4.67191 19.8747 4.64757 19.301C4.62829 18.8467 4.61449 18.3923 4.5995 17.9379C4.56851 16.9991 4.56792 16.0602 4.57534 15.1213C4.57928 14.6214 4.59194 14.1215 4.60801 13.6218C4.62357 13.1382 4.64285 12.6546 4.67083 12.1716C4.70572 11.5693 4.73776 10.9668 4.79136 10.3656C4.85184 9.68687 4.93596 9.01227 5.11305 8.35274C5.28563 7.71001 5.54247 7.10578 5.9576 6.57872C6.4493 5.95442 7.08986 5.54173 7.82983 5.27215C8.46583 5.04043 9.12615 4.92023 9.79547 4.8412C10.3974 4.77011 11.0017 4.73 11.6067 4.69645C12.1666 4.66543 12.7265 4.63833 13.2868 4.61626C14.1663 4.5816 15.046 4.56321 15.9262 4.5752C16.3969 4.5752 16.8677 4.56744 17.3382 4.57704Z" stroke="#181818"/>
<path fill-rule="evenodd" clip-rule="evenodd" d="M17.5183 3.04006C18.281 3.05563 19.0436 3.07939 19.8058 3.11142C20.4202 3.13727 21.034 3.17724 21.6477 3.2169C22.4661 3.26976 23.2826 3.34228 24.0883 3.50392C24.7897 3.64463 25.4668 3.85451 26.0948 4.20673C26.7591 4.57938 27.2921 5.08829 27.6904 5.73688C28.1117 6.42284 28.3458 7.17762 28.4986 7.96173C28.6199 8.58426 28.6863 9.21341 28.7376 9.84499C28.7978 10.5876 28.8416 11.3312 28.8754 12.0753C28.9156 12.9644 28.9424 13.8538 28.9559 14.744C28.9669 15.4593 28.9694 16.1744 28.9621 16.8896C28.9564 17.4477 28.9466 18.0059 28.9274 18.5637C28.9036 19.257 28.8726 19.9501 28.8363 20.6428C28.8085 21.1757 28.7756 21.7086 28.731 22.2404C28.6568 23.1246 28.5529 24.005 28.2982 24.8596C28.0308 25.7569 27.6111 26.5651 26.9069 27.2033C26.4562 27.6118 25.9375 27.9086 25.3717 28.1249C24.7002 28.3814 24.0019 28.5259 23.2914 28.6201C22.6035 28.7113 21.9122 28.7597 21.22 28.8017C20.6391 28.837 20.0581 28.8668 19.4768 28.8924C18.9103 28.9174 18.3436 28.9305 17.7769 28.9461C16.6667 28.9765 15.5565 28.9671 14.4464 28.9536C13.7229 28.9448 12.9995 28.914 12.2766 28.8828C11.6441 28.8556 11.012 28.8195 10.3804 28.7776C9.4717 28.7172 8.56447 28.6401 7.67349 28.4379C7.05304 28.2972 6.45361 28.0969 5.8976 27.7818C5.11722 27.3394 4.52615 26.7159 4.11944 25.916C3.75419 25.1977 3.55805 24.4287 3.43154 23.6387C3.32844 22.995 3.27391 22.3461 3.22987 21.6961C3.18582 21.0462 3.14774 20.396 3.12012 19.7451C3.09825 19.2296 3.0826 18.7141 3.06559 18.1986C3.03043 17.1335 3.02976 16.0683 3.03818 15.003C3.04264 14.4358 3.05701 13.8687 3.07525 13.3017C3.0929 12.7531 3.11477 12.2044 3.14651 11.6564C3.1861 10.9731 3.22245 10.2896 3.28326 9.60748C3.35188 8.8374 3.44732 8.07204 3.64823 7.32378C3.84403 6.59456 4.13543 5.90904 4.60642 5.31106C5.16428 4.60277 5.89102 4.13455 6.73055 3.82869C7.45212 3.5658 8.20129 3.42942 8.96066 3.33976C9.64357 3.25911 10.3292 3.21361 11.0156 3.17554C11.6508 3.14034 12.2861 3.1096 12.9218 3.08456C13.9196 3.04523 14.9177 3.02437 15.9162 3.03797C16.4503 3.03797 16.9845 3.02917 17.5183 3.04006Z" stroke="#181818"/>
</g>
<defs>
<clipPath id="clip0_2529_13687">
<rect width="32" height="32" fill="white"/>
</clipPath>
</defs>
</svg>
