<svg xmlns="http://www.w3.org/2000/svg" fill="currentColor" viewBox="0 0 56 56" width="1em" height="1em" class="icon-64 responsive"><path fill="currentColor" d="M34.7447 17.3114H35.9754V14.8795C35.9754 12.7897 35.1352 10.7855 33.6395 9.30784C32.1438 7.83016 30.1152 7 28 7C25.8848 7 23.8563 7.83016 22.3606 9.30784C20.8649 10.7855 20.0247 12.7897 20.0247 14.8795V17.3114H21.2554V14.8795C21.2554 13.1122 21.966 11.4173 23.2309 10.1677C24.4957 8.91801 26.2113 8.21597 28 8.21597C29.7888 8.21597 31.5043 8.91801 32.7692 10.1677C34.0341 11.4173 34.7447 13.1122 34.7447 14.8795V17.3114Z"></path><path fill="currentColor" d="M35.5 28L24.5 28V36H26.5V30H35.5V28Z"></path><path fill="currentColor" d="M29.5 33.5V39.5H20.5V41.5H31.5V33.5H29.5Z"></path><path fill="currentColor" fill-rule="evenodd" d="M13.8814 21.7118C12.7077 22.8486 12.0322 24.3949 12 26.0184V42.7988C12 44.4435 12.6613 46.0209 13.8385 47.1839C15.0156 48.3468 16.6122 49.0002 18.2769 49.0002H37.7231C39.3878 49.0002 40.9844 48.3468 42.1615 47.1839C43.3387 46.0209 44 44.4435 44 42.7988V26.0184C44 24.3737 43.3387 22.7964 42.1615 21.6334C40.9844 20.4704 39.3878 19.817 37.7231 19.817L18.2769 19.812C16.6333 19.8117 15.0551 20.5749 13.8814 21.7118ZM37.7231 20.817C39.1265 20.817 40.47 21.3679 41.4587 22.3447C42.447 23.3212 43 24.6429 43 26.0184V42.7988C43 44.1744 42.447 45.4961 41.4587 46.4725C40.47 47.4493 39.1265 48.0002 37.7231 48.0002H18.2769C16.8735 48.0002 15.53 47.4493 14.5413 46.4725C13.553 45.4961 13 44.1744 13 42.7988V26.0288C13.0294 24.6744 13.594 23.3824 14.5772 22.4301C15.6016 21.4377 16.9406 20.8118 18.2767 20.812L37.7231 20.817Z" clip-rule="evenodd"></path></svg>