<svg width="32" height="32" viewBox="0 0 32 32" fill="none" xmlns="http://www.w3.org/2000/svg">
<path d="M14.286 27.3284C11.6329 26.0666 9.80028 23.3626 9.80028 20.2295V19.6786C9.80028 18.8341 10.4843 18.1506 11.3289 18.1506C12.174 18.1506 12.8586 18.8341 12.8586 19.6786M24.8574 20.3221V16.5992C24.8574 15.7541 24.0311 15.0701 23.186 15.0701C22.3403 15.0701 21.6563 15.7541 21.6563 16.5992V17.3015V15.0701C21.6563 14.2255 20.9723 13.5404 20.1277 13.5404C19.2814 13.5404 18.598 14.2255 18.598 15.0701M15.8523 12.6135C16.1311 12.2478 16.5723 12.0118 17.0694 12.0118C17.9146 12.0118 18.598 12.6952 18.598 13.5404V17.3015M12.8574 20.4318V8.95464C12.8574 8.11007 13.4409 7.34664 14.286 7.34664C15.1317 7.34664 15.7146 8.03921 15.7146 9.01807V17.4352M6.00028 7.14264C6.63114 7.14264 7.14314 7.65464 7.14314 8.2855C7.14314 8.91635 6.63114 9.42835 6.00028 9.42835C5.36942 9.42835 4.85742 8.91635 4.85742 8.2855C4.85742 7.65464 5.36942 7.14264 6.00028 7.14264ZM10.0003 7.14264C10.6311 7.14264 11.1431 7.65464 11.1431 8.2855C11.1431 8.91635 10.6311 9.42835 10.0003 9.42835C9.36942 9.42835 8.85742 8.91635 8.85742 8.2855C8.85742 7.65464 9.36942 7.14264 10.0003 7.14264Z" stroke="#181818"/>
<path fill-rule="evenodd" clip-rule="evenodd" d="M23.4321 11.4284C23.4321 11.8192 23.8807 12.2855 24.2813 12.2855C24.6824 12.2855 25.1316 11.8192 25.1316 11.4284H23.4321ZM23.6921 5.92607C22.635 6.17635 21.8721 7.06607 21.8721 8.17121V9.77521L21.1436 10.4878V10.8444H27.3344V10.4878L26.6058 9.77521V8.17121C26.6058 7.06607 25.8413 6.17635 24.7836 5.92607V5.67692C24.7836 5.39235 24.5293 5.14264 24.2384 5.14264C23.947 5.14264 23.6921 5.39235 23.6921 5.67692V5.92607Z" fill="#181818"/>
</svg>
