<svg width="32" height="32" viewBox="0 0 32 32" fill="none" xmlns="http://www.w3.org/2000/svg">
<path d="M7.52526 30.1105H5.84767V31.1734H7.83135V32H4.77637V27.5479H7.83724V28.3745H5.84767V29.3134H7.53115V30.1105H7.52526Z" fill="#242424"/>
<path d="M12.0171 31.1734H13.9593V32H10.8984V27.5479H12.0171V31.1734Z" fill="#242424"/>
<path d="M19.059 30.7182C19.059 30.5534 19.0085 30.4314 18.9018 30.3398C18.7952 30.2482 18.61 30.1567 18.3462 30.059C18.0825 29.9614 17.8636 29.8698 17.6952 29.7782C17.1453 29.4853 16.8759 29.0824 16.8759 28.5697C16.8759 28.3133 16.9432 28.0875 17.0779 27.8922C17.2126 27.6969 17.409 27.5443 17.656 27.4344C17.9085 27.3245 18.1891 27.2696 18.4978 27.2696C18.8008 27.2696 19.0758 27.3306 19.3171 27.4466C19.5584 27.5626 19.7436 27.7335 19.8783 27.9532C20.013 28.173 20.0803 28.4232 20.0803 28.6979H19.0646C19.0646 28.5087 19.0141 28.3622 18.9074 28.2645C18.8008 28.1607 18.6605 28.1119 18.4809 28.1119C18.3013 28.1119 18.1554 28.1546 18.0488 28.2401C17.9422 28.3255 17.8917 28.4415 17.8917 28.5758C17.8917 28.6918 17.9478 28.8016 18.0656 28.8993C18.1835 28.997 18.3855 29.0946 18.6773 29.1984C18.9692 29.3022 19.2105 29.412 19.3957 29.528C19.8502 29.8149 20.0803 30.2116 20.0803 30.7121C20.0803 31.115 19.94 31.4324 19.6594 31.6582C19.3788 31.8902 18.9972 32 18.5146 32C18.1723 32 17.8636 31.9329 17.583 31.7986C17.3024 31.6643 17.0948 31.4812 16.9545 31.2493C16.8142 31.0173 16.7412 30.7488 16.7412 30.4436H17.7626C17.7626 30.6877 17.8187 30.8708 17.9366 30.9868C18.0544 31.1028 18.2452 31.1638 18.509 31.1638C18.6773 31.1638 18.812 31.1272 18.9074 31.0478C19.0141 30.9746 19.059 30.8647 19.059 30.7182Z" fill="#242424"/>
<path d="M25.6612 31.1675H24.2277L23.9802 32H22.8633L24.4522 27.5479H25.4367L27.0372 32H25.9146L25.6612 31.1675ZM24.4753 30.3408H25.4079L24.9416 28.7997L24.4753 30.3408Z" fill="#242424"/>
<path fill-rule="evenodd" clip-rule="evenodd" d="M27.0716 20.1334L15.724 24.0409L4.74219 20.1901L4.81125 19.9931L15.7246 23.8199L27.0036 19.9361L27.0716 20.1334Z" fill="#242424"/>
<path fill-rule="evenodd" clip-rule="evenodd" d="M15.7243 18.2556L27.0055 14.6484L27.0691 14.8472L15.7237 18.4749L4.74414 14.8997L4.80876 14.7013L15.7243 18.2556Z" fill="#242424"/>
<path d="M15.7239 18.5891L8.54147 16.1755L4.77637 17.47L15.7239 21.1479L27.0372 17.4095L23.1402 16.1392L15.7239 18.5891Z" fill="#242424"/>
<path fill-rule="evenodd" clip-rule="evenodd" d="M23.1401 16.0293L27.3719 17.4088L15.7237 21.2578L4.45215 17.4711L8.54112 16.0652L15.7243 18.479L23.1401 16.0293ZM23.1405 16.2489L15.7237 18.699L8.54189 16.2856L5.10066 17.4688L15.7243 21.0378L26.7027 17.4101L23.1405 16.2489Z" fill="#242424"/>
<path fill-rule="evenodd" clip-rule="evenodd" d="M15.9071 0V14.4696H15.3506V0H15.9071Z" fill="#242424"/>
<path fill-rule="evenodd" clip-rule="evenodd" d="M19.5243 3.61737V13.3565H18.9678V3.61737H19.5243Z" fill="#242424"/>
<path fill-rule="evenodd" clip-rule="evenodd" d="M23.1415 7.2348V12.2435H22.585V7.2348H23.1415Z" fill="#242424"/>
<path fill-rule="evenodd" clip-rule="evenodd" d="M8.67175 7.2348V12.2435H8.11523V7.2348H8.67175Z" fill="#242424"/>
<path fill-rule="evenodd" clip-rule="evenodd" d="M12.2899 3.61737V13.3565H11.7334V3.61737H12.2899Z" fill="#242424"/>
</svg>
