<svg width="32" height="32" viewBox="0 0 32 32" fill="none" xmlns="http://www.w3.org/2000/svg">
<g clip-path="url(#clip0)">
<path d="M27.482 10.9238C28.9299 13.886 28.9398 17.3733 27.5152 20.3444M30.0336 8.8829C32.0952 13.1291 32.1107 18.1197 30.0768 22.3769M4.3959 20.3449C2.94802 17.3826 2.93694 13.8953 4.36156 10.9242M1.84321 22.3858C-0.21839 18.1396 -0.232791 13.149 1.8 8.89176M6.44998 15.8024C6.44998 10.5472 10.7102 6.28577 15.9654 6.28577C21.2218 6.28577 25.4832 10.5472 25.4832 15.8024C25.4832 21.0588 21.2218 25.319 15.9654 25.319C10.7102 25.319 6.44998 21.0588 6.44998 15.8024Z" stroke="#181818"/>
<path fill-rule="evenodd" clip-rule="evenodd" d="M16.5786 21.6186V24.8208H16.0144V22.1573L14.9508 22.6694V22.1214L16.0086 21.6186H16.5786ZM11.8366 17.2684V20.9943H12.7113V21.4716H10.3849V20.9943H11.2724V17.8082L10.2088 18.3192V17.7723L11.2666 17.2684H11.8366ZM20.7731 17.2513V21.0814H21.738V21.4523H19.4117V21.0814H20.2991V17.7877L19.2379 18.2987V17.753L20.2933 17.2513H20.7731ZM16.1076 14.0669C16.5594 14.0669 16.9 14.2488 17.1294 14.6172C17.36 14.9845 17.4758 15.5255 17.4758 16.2485C17.4758 16.9656 17.36 17.509 17.1294 17.8751C16.9 18.2424 16.5594 18.4242 16.1076 18.4242C15.6592 18.4242 15.3197 18.2424 15.0903 17.8751C14.8598 17.509 14.7451 16.9656 14.7451 16.2485C14.7451 15.5255 14.8598 14.9845 15.0903 14.6172C15.3197 14.2488 15.6592 14.0669 16.1076 14.0669ZM24.8025 13.8867V14.3385C24.5372 14.3385 24.3403 14.4822 24.2093 14.7637C24.0784 15.0487 24.0124 15.4832 24.0124 16.0683C24.0124 16.3324 24.0309 16.5815 24.0657 16.8121L24.8025 15.6385V16.3799L24.1966 17.33C24.3379 17.6404 24.5395 17.7957 24.8025 17.7957V18.2475C24.353 18.2475 24.0147 18.0633 23.7841 17.6949C23.5547 17.33 23.4389 16.7854 23.4389 16.0683C23.4389 15.3477 23.5547 14.8054 23.7841 14.4382C24.0147 14.0698 24.353 13.8867 24.8025 13.8867ZM7.54274 13.967V17.6895H8.41861V18.1679H6.5962V17.6895H6.97968V14.5034L6.53711 14.7166L6.54059 14.1721L6.97389 13.967H7.54274ZM16.8467 15.4039L15.5016 17.509C15.643 17.8195 15.8457 17.9736 16.1076 17.9736C16.3775 17.9736 16.5745 17.8334 16.7077 17.5472C16.8374 17.2634 16.9035 16.8312 16.9035 16.2485C16.9035 15.9368 16.8826 15.6553 16.8467 15.4039ZM16.1076 14.5187C15.8434 14.5187 15.6453 14.6601 15.5155 14.9439C15.3835 15.2301 15.3186 15.6622 15.3186 16.2485C15.3186 16.5091 15.336 16.7594 15.3719 16.9911L16.688 14.8941C16.5443 14.645 16.3509 14.5187 16.1076 14.5187ZM11.3597 9.72076C11.8116 9.72076 12.1522 9.90381 12.3816 10.2722C12.6121 10.6407 12.728 11.1829 12.728 11.9012C12.728 12.6206 12.6121 13.1628 12.3816 13.5313C12.1522 13.8985 11.8116 14.0839 11.3597 14.0839C10.9125 14.0839 10.5719 13.8985 10.3414 13.5313C10.1108 13.1628 9.99843 12.6206 9.99843 11.9012C9.99843 11.1829 10.1108 10.6407 10.3414 10.2722C10.5719 9.90381 10.9125 9.72076 11.3597 9.72076ZM20.3876 9.70326C20.8395 9.70326 21.1801 9.88631 21.4095 10.2547C21.6389 10.6232 21.7547 11.163 21.7547 11.8837C21.7547 12.602 21.6389 13.1453 21.4095 13.5115C21.1801 13.881 20.8395 14.0629 20.3876 14.0629C19.9393 14.0629 19.601 13.881 19.3693 13.5115C19.1399 13.1453 19.0252 12.602 19.0252 11.8837C19.0252 11.163 19.1399 10.6232 19.3693 10.2547C19.601 9.88631 19.9393 9.70326 20.3876 9.70326ZM12.0989 11.0589L10.7538 13.1628C10.8963 13.4745 11.0979 13.6297 11.3597 13.6297C11.6297 13.6297 11.8278 13.4884 11.9587 13.2034C12.0896 12.9184 12.1545 12.4839 12.1545 11.9012C12.1545 11.5907 12.1348 11.3126 12.0989 11.0589ZM21.1245 11.0414L19.7817 13.1453C19.923 13.457 20.1258 13.6122 20.3876 13.6122C20.6564 13.6122 20.8545 13.4686 20.9866 13.1847C21.1175 12.902 21.1836 12.4664 21.1836 11.8837C21.1836 11.5732 21.1627 11.294 21.1245 11.0414ZM11.3597 10.1738C11.0956 10.1738 10.8975 10.3151 10.7677 10.6001C10.6368 10.884 10.5719 11.3184 10.5719 11.9012C10.5719 12.1676 10.5881 12.4156 10.624 12.6473L11.9402 10.5491C11.7977 10.3 11.603 10.1738 11.3597 10.1738ZM20.3876 10.1539C20.1235 10.1539 19.9242 10.2976 19.7956 10.5803C19.6635 10.8653 19.5986 11.2998 19.5986 11.8837C19.5986 12.1478 19.616 12.3969 19.6519 12.6286L20.9681 10.5293C20.8256 10.2791 20.6309 10.1539 20.3876 10.1539ZM16.5828 6.67212V10.3957H17.4587V10.8731H15.1311V10.3957H16.0186V7.21085L14.9562 7.72293V7.17493L16.0128 6.67212H16.5828Z" fill="#181818"/>
</g>
<defs>
<clipPath id="clip0">
<rect width="32" height="32" fill="white"/>
</clipPath>
</defs>
</svg>
