<svg width="32" height="32" viewBox="0 0 32 32" fill="none" xmlns="http://www.w3.org/2000/svg">
<path d="M9.14285 19.1765V11.4118C9.14285 7.31836 11.9496 4 16.0175 4C20.0855 4 22.8571 7.31836 22.8571 11.4118V19.1765" stroke="#181818"/>
<path d="M26.5645 19.1428H5.42857V19.7143H26.5645V19.1428Z" fill="#181818" stroke="#181818"/>
<path d="M10.8572 18.8572H20.5714C21.2026 18.8572 21.7143 19.3689 21.7143 20V23.4301C21.7143 24.0613 21.2026 24.5729 20.5714 24.5729H10.8572C10.226 24.5729 9.71429 24.0613 9.71429 23.4301V20C9.71429 19.3689 10.226 18.8572 10.8572 18.8572Z" fill="#181818"/>
<path d="M18.5714 22.4709V27.9888" stroke="#181818"/>
<path d="M12.8571 22.4709V27.9823" stroke="#181818"/>
<path d="M15.1903 5.71436C12.736 5.71436 10.8571 7.7635 10.8571 10.3406" stroke="#181818"/>
</svg>
