<svg width="32" height="32" viewBox="0 0 32 32" fill="none" xmlns="http://www.w3.org/2000/svg">
<path d="M22 21.208V25.6057C22 26.5103 21.1914 27.1429 20.2857 27.1429H18C17.0943 27.1429 16.2857 26.5103 16.2857 25.6057V6.20975C16.2857 5.30518 17.0943 4.85718 18 4.85718H20.2857C21.1914 4.85718 22 5.30518 22 6.20975V10.9417M12.8571 27.1429H10.5714C9.66572 27.1429 8.85715 26.5103 8.85715 25.6057V6.20975C8.85715 5.30518 9.66572 4.85718 10.5714 4.85718H12.8571C13.7629 4.85718 14.5714 5.30518 14.5714 6.20975V25.6057C14.5714 26.5103 13.7629 27.1429 12.8571 27.1429Z" stroke="#181818"/>
<path fill-rule="evenodd" clip-rule="evenodd" d="M22.2857 18.2857C23.548 18.2857 24.5714 17.2623 24.5714 16C24.5714 14.7377 23.548 13.7143 22.2857 13.7143C21.0234 13.7143 20 14.7377 20 16C20 17.2623 21.0234 18.2857 22.2857 18.2857ZM18.9046 16.5715H16.2274V15.4286H18.9046C19.1766 13.8069 20.5869 12.5715 22.2857 12.5715C24.1789 12.5715 25.7143 14.1069 25.7143 16C25.7143 17.8932 24.1789 19.4286 22.2857 19.4286C20.5869 19.4286 19.1766 18.1932 18.9046 16.5715ZM11.5909 8.57146C11.6657 8.63146 11.7811 8.63146 11.8554 8.57146L13.7011 6.85718H9.70114L11.5909 8.57146Z" fill="#181818"/>
</svg>
