<svg width="32" height="32" viewBox="0 0 32 32" fill="none" xmlns="http://www.w3.org/2000/svg">
<g clip-path="url(#clip0)">
<path fill-rule="evenodd" clip-rule="evenodd" d="M13.4409 24.3071C13.4409 25.6465 14.5946 26.5928 16.038 26.5928C17.458 26.5928 18.5009 25.6625 18.5009 24.3071V24.0214H13.4409V24.3071Z" fill="#181818"/>
<path d="M1.82172 22.2602C-0.211994 18.0716 -0.22628 13.1487 1.77886 8.9493M4.91143 20.2476C3.48286 17.3247 3.47201 13.8847 4.87715 10.9539M30.2017 8.94016C32.2349 13.1293 32.2503 18.0522 30.244 22.2516M27.1126 10.9533C28.5411 13.8756 28.5509 17.3162 27.1457 20.247M22.384 10.1373L9.92858 22.5927M22.384 10.1373L27.7263 4.79502M22.384 10.1373C22.8817 11.1259 23.1549 12.2544 23.1549 13.4659V19.4984L25.4406 21.7184V22.5927H9.92858M22.384 10.1373C21.4663 8.31444 19.7857 6.96873 17.6491 6.46359V5.68759C17.6491 4.79959 16.8549 4.0213 15.948 4.0213C15.0389 4.0213 14.2463 4.79959 14.2463 5.68759V6.46359C10.9509 7.24302 8.86915 10.0207 8.86915 13.4659V19.4984L6.58343 21.7184V22.5927H9.92858M9.92858 22.5927L4.86915 27.6522" stroke="#181818"/>
</g>
<defs>
<clipPath id="clip0">
<rect width="32" height="32" fill="white"/>
</clipPath>
</defs>
</svg>
