<svg width="32" height="32" viewBox="0 0 32 32" fill="none" xmlns="http://www.w3.org/2000/svg">
<path fill-rule="evenodd" clip-rule="evenodd" d="M14.0715 20.5044C14.8566 24.4278 17.7206 25.3147 20.3172 25.0461C23.0372 22.9718 24.7995 19.7078 24.7995 16.0232C24.7995 13.8152 24.1583 11.7615 23.068 10.0175C22.3172 12.4712 20.4795 14.4461 18.1195 15.3924C18.9469 14.0838 19.4337 12.5375 19.4337 10.8747C19.4337 7.87694 17.5389 5.23466 15.6886 3.51123C15.6669 11.4929 8.14345 10.7901 7.21316 17.1501C6.64631 21.0198 9.61545 24.0301 12.8932 24.8621C12.532 24.0484 12.1012 22.0335 14.0715 20.5044Z" stroke="#181818"/>
<path fill-rule="evenodd" clip-rule="evenodd" d="M13.1429 27.4286H18.8605C19.1761 27.4286 19.432 27.6844 19.432 28V28.0137C19.432 28.3293 19.1761 28.5851 18.8605 28.5851H13.1429C12.8273 28.5851 12.5715 28.3293 12.5715 28.0137V28C12.5715 27.6844 12.8273 27.4286 13.1429 27.4286Z" fill="#181818"/>
</svg>
