<svg width="32" height="32" viewBox="0 0 32 32" fill="none" xmlns="http://www.w3.org/2000/svg">
<path d="M11.5474 3.4958C11.421 3.44087 11.2511 3.42643 11.1429 3.42899C9.96066 3.48069 8.10919 3.69281 7.14286 4.2726C6.28572 4.84403 6.28572 5.98689 6.28572 11.4155V20.2861C6.28572 25.7147 6.28572 26.8576 7.14286 27.429C8.10919 28.0088 9.96066 28.2209 11.1429 28.2726C11.2511 28.2752 11.421 28.2607 11.5474 28.2058M11.5474 3.4958C11.6433 3.5375 11.7143 3.60253 11.7143 3.70117C11.7143 3.92974 11.7143 5.70117 11.7143 6.55831V12.2726V19.429V25.1433C11.7143 26.0004 11.7143 27.7718 11.7143 28.0004C11.7143 28.0991 11.6433 28.1641 11.5474 28.2058M11.5474 3.4958C10.3649 3.56425 8.00001 4.21546 8.00001 6.2726C8.00001 8.32974 8.00001 11.7012 8.00001 13.1297V18.5718C8.00001 20.0004 8.00001 23.3718 8.00001 25.429C8.00001 27.4861 10.3649 28.1373 11.5474 28.2058" stroke="#181818"/>
<path d="M22.8572 8.57129V13.7661" stroke="#181818"/>
<path d="M21.1429 6.85742L21.1429 16.0003" stroke="#181818"/>
<path d="M19.4286 5.71436V17.4027" stroke="#181818"/>
<path d="M17.7143 8L17.7143 14.8571" stroke="#181818"/>
<path d="M16 9.71436L16 13.1429" stroke="#181818"/>
<path d="M24.5714 8L24.5714 14.8571" stroke="#181818"/>
<path d="M14.2857 10.2856V11.9999" stroke="#181818"/>
<path d="M26.2857 10.2856V12.5714" stroke="#181818"/>
<path fill-rule="evenodd" clip-rule="evenodd" d="M12 7.99993V6.28564H9.71429V6.79763L12 7.99993Z" fill="#181818"/>
</svg>
