<svg width="32" height="32" fill="none" xmlns="http://www.w3.org/2000/svg"><path fill-rule="evenodd" clip-rule="evenodd" d="M7.386 9.2a1.815 1.815 0 1 0 0-3.629 1.815 1.815 0 0 0 0 3.63Zm0 1a2.814 2.814 0 1 0 0-5.629 2.814 2.814 0 0 0 0 5.63Zm0 7.614a1.815 1.815 0 1 0 0-3.629 1.815 1.815 0 0 0 0 3.63Zm0 1a2.814 2.814 0 1 0 0-5.629 2.814 2.814 0 0 0 0 5.63Zm1.814 5.8a1.814 1.814 0 1 1-3.628 0 1.814 1.814 0 0 1 3.628 0Zm1 0a2.814 2.814 0 1 1-5.629 0 2.814 2.814 0 0 1 5.63 0Zm6-15.414a1.815 1.815 0 1 0 0-3.629 1.815 1.815 0 0 0 0 3.63Zm0 1a2.815 2.815 0 1 0 0-5.629 2.815 2.815 0 0 0 0 5.63Zm0 8.614a2.815 2.815 0 1 0 0-5.629 2.815 2.815 0 0 0 0 5.63Zm0 7.614a1.814 1.814 0 1 0 0-3.629 1.814 1.814 0 0 0 0 3.63Zm0 1a2.815 2.815 0 1 0 0-5.629 2.815 2.815 0 0 0 0 5.63ZM25.011 10.2a2.815 2.815 0 1 0 0-5.629 2.815 2.815 0 0 0 0 5.63Zm2.815 5.8a2.815 2.815 0 1 1-5.63 0 2.815 2.815 0 0 1 5.63 0Zm-1 8.614a1.814 1.814 0 1 1-3.63 0 1.814 1.814 0 0 1 3.63 0Zm1 0a2.815 2.815 0 1 1-5.63 0 2.815 2.815 0 0 1 5.63 0Z" fill="#303030"/></svg>