<svg width="32" height="32" viewBox="0 0 32 32" fill="none" xmlns="http://www.w3.org/2000/svg">
<path d="M7.64499 5.71429C7.64499 5.36629 8.09928 4.85715 8.50213 4.85715H23.3433C23.7461 4.85715 24.2164 5.36629 24.2164 5.71429M5.9307 7.42858C5.9307 7.01315 6.3067 6.57143 6.78785 6.57143H25.0736C25.5547 6.57143 25.9307 7.01315 25.9307 7.42858M5.32728 25.4149C4.78728 25.4149 4.28613 25.0046 4.28613 24.5377V9.22229C4.28613 8.75543 4.78728 8.32058 5.32728 8.32058H26.7627C27.3027 8.32058 27.5753 8.75543 27.5753 9.22229V24.5377C27.5753 25.0046 27.3027 25.4149 26.7627 25.4149H13.2416H5.32728Z" stroke="#181818"/>
<path d="M11.8887 20H11.1348V17.3711H8.26758V20H7.51758V14.3125H8.26758V16.7578H11.1348V14.3125H11.8887V20Z" fill="black"/>
<path d="M14.3636 20V14.3125H15.969C16.4638 14.3125 16.9013 14.4219 17.2815 14.6406C17.6617 14.8594 17.9547 15.1706 18.1604 15.5742C18.3688 15.9779 18.4742 16.4414 18.4768 16.9648V17.3281C18.4768 17.8646 18.3727 18.3346 18.1643 18.7383C17.9586 19.1419 17.663 19.4518 17.2776 19.668C16.8948 19.8841 16.4482 19.9948 15.9378 20H14.3636ZM15.1136 14.9297V19.3867H15.9026C16.4807 19.3867 16.93 19.207 17.2503 18.8477C17.5732 18.4883 17.7347 17.9766 17.7347 17.3125V16.9805C17.7347 16.3346 17.5823 15.8333 17.2776 15.4766C16.9755 15.1172 16.5459 14.9349 15.9886 14.9297H15.1136Z" fill="black"/>
<path d="M22.8424 17.6992H21.5064V20H20.7525V14.3125H22.6353C23.2759 14.3125 23.7681 14.4583 24.1119 14.75C24.4582 15.0417 24.6314 15.4661 24.6314 16.0234C24.6314 16.3776 24.5351 16.6862 24.3424 16.9492C24.1523 17.2122 23.8866 17.4089 23.5455 17.5391L24.8814 19.9531V20H24.0767L22.8424 17.6992ZM21.5064 17.0859H22.6588C23.0312 17.0859 23.3267 16.9896 23.5455 16.7969C23.7668 16.6042 23.8775 16.3464 23.8775 16.0234C23.8775 15.6719 23.772 15.4023 23.5611 15.2148C23.3528 15.0273 23.0507 14.9323 22.6549 14.9297H21.5064V17.0859Z" fill="black"/>
</svg>
