<svg width="32" height="32" viewBox="0 0 32 32" fill="none" xmlns="http://www.w3.org/2000/svg">
<path fill-rule="evenodd" clip-rule="evenodd" d="M17.6728 1.72112C18.5131 1.73827 19.3534 1.76444 20.1931 1.79974C20.87 1.82821 21.5463 1.87225 22.2224 1.91595C23.1241 1.97419 24.0237 2.05409 24.9114 2.23218C25.6842 2.38721 26.4302 2.61844 27.122 3.00651C27.854 3.41708 28.4412 3.97777 28.8801 4.69237C29.3443 5.44812 29.6021 6.27972 29.7705 7.14361C29.9041 7.8295 29.9773 8.52267 30.0338 9.21852C30.1001 10.0367 30.1484 10.856 30.1856 11.6758C30.2299 12.6553 30.2594 13.6353 30.2744 14.616C30.2864 15.4041 30.2892 16.1921 30.2811 16.98C30.2749 17.5949 30.2641 18.2099 30.243 18.8245C30.2167 19.5883 30.1825 20.3519 30.1426 21.1151C30.1119 21.7023 30.0757 22.2894 30.0265 22.8753C29.9448 23.8495 29.8303 24.8195 29.5497 25.761C29.2551 26.7496 28.7927 27.64 28.0168 28.3432C27.5202 28.7933 26.9488 29.1203 26.3253 29.3586C25.5856 29.6413 24.8162 29.8004 24.0334 29.9042C23.2755 30.0046 22.5138 30.058 21.7512 30.1043C21.1112 30.1431 20.4711 30.176 19.8306 30.2042C19.2065 30.2318 18.5821 30.2462 17.9578 30.2633C16.7346 30.2969 15.5114 30.2865 14.2884 30.2716C13.4912 30.2619 12.6942 30.228 11.8977 30.1937C11.2009 30.1637 10.5044 30.1239 9.80854 30.0777C8.8074 30.0111 7.80785 29.9262 6.82619 29.7035C6.14261 29.5484 5.48218 29.3278 4.86959 28.9806C4.0098 28.4932 3.35858 27.8062 2.91048 26.9249C2.50807 26.1336 2.29197 25.2863 2.15259 24.4159C2.039 23.7066 1.97892 22.9918 1.93039 22.2757C1.88186 21.5596 1.83991 20.8432 1.80948 20.126C1.78538 19.5582 1.76813 18.9902 1.7494 18.4222C1.71066 17.2487 1.70992 16.0751 1.7192 14.9014C1.72411 14.2765 1.73994 13.6517 1.76004 13.027C1.77949 12.4226 1.80358 11.8181 1.83855 11.2143C1.88217 10.4615 1.92222 9.70836 1.98922 8.95684C2.06482 8.1084 2.16997 7.26515 2.39133 6.44075C2.60706 5.63733 2.92811 4.88205 3.44703 4.22321C4.06165 3.44285 4.86234 2.92698 5.7873 2.59C6.58231 2.30035 7.40771 2.1501 8.24436 2.05131C8.99676 1.96246 9.75218 1.91232 10.5084 1.87039C11.2083 1.8316 11.9082 1.79774 12.6086 1.77014C13.7079 1.72681 14.8075 1.70383 15.9077 1.71881C16.4961 1.71881 17.0847 1.70912 17.6728 1.72112Z" stroke="#181818"/>
<path fill-rule="evenodd" clip-rule="evenodd" d="M12.5714 16.5713V15.4285H19.4286V16.5713H12.5714Z" fill="#181818"/>
</svg>
