<svg width="32" height="32" viewBox="0 0 32 32" fill="none" xmlns="http://www.w3.org/2000/svg">
<path fill-rule="evenodd" clip-rule="evenodd" d="M17.256 4.57528C17.7433 4.58523 18.2307 4.60041 18.7177 4.62088C19.1103 4.6374 19.5026 4.66294 19.8947 4.68828C20.4177 4.72206 20.9395 4.76841 21.4543 4.8717C21.9025 4.96161 22.3352 5.09573 22.7365 5.32081C23.161 5.55894 23.5016 5.88414 23.7562 6.29861C24.0254 6.73695 24.175 7.21927 24.2726 7.72033C24.3501 8.11814 24.3926 8.52018 24.4253 8.92378C24.4638 9.39833 24.4918 9.8735 24.5133 10.349C24.5391 10.9171 24.5562 11.4855 24.5648 12.0543C24.5718 12.5114 24.5735 12.9684 24.5688 13.4254C24.5651 13.7821 24.5589 14.1388 24.5466 14.4952C24.5314 14.9382 24.5116 15.3811 24.4884 15.8238C24.4706 16.1644 24.4496 16.5049 24.4211 16.8447C24.3737 17.4097 24.3073 17.9724 24.1445 18.5184C23.9736 19.0918 23.7055 19.6083 23.2555 20.0161C22.9674 20.2772 22.636 20.4668 22.2744 20.605C21.8454 20.769 21.3991 20.8613 20.9451 20.9214C20.5055 20.9797 20.0637 21.0107 19.6214 21.0375C19.2502 21.06 18.8789 21.0791 18.5075 21.0955C18.1455 21.1115 17.7834 21.1198 17.4212 21.1298C16.7118 21.1492 16.0023 21.1432 15.293 21.1346C14.8306 21.129 14.3684 21.1093 13.9064 21.0894C13.5022 21.072 13.0983 21.0489 12.6947 21.0221C12.114 20.9835 11.5343 20.9342 10.9649 20.8051C10.5684 20.7151 10.1854 20.5872 9.83008 20.3858C9.3314 20.1031 8.95369 19.7046 8.6938 19.1935C8.4604 18.7345 8.33506 18.2431 8.25422 17.7382C8.18833 17.3269 8.15349 16.9123 8.12534 16.4969C8.09719 16.0816 8.07286 15.6661 8.05521 15.2501C8.04124 14.9208 8.03123 14.5913 8.02036 14.2619C7.9979 13.5813 7.99747 12.9006 8.00285 12.2199C8.0057 11.8574 8.01488 11.495 8.02654 11.1327C8.03782 10.7821 8.05179 10.4315 8.07208 10.0813C8.09737 9.64469 8.1206 9.20788 8.15946 8.772C8.20331 8.27991 8.2643 7.79082 8.39268 7.31267C8.51781 6.84668 8.70402 6.40862 9.00499 6.0265C9.36147 5.57389 9.82587 5.27468 10.3624 5.07923C10.8235 4.91124 11.3022 4.82409 11.7874 4.7668C12.2238 4.71526 12.662 4.68618 13.1006 4.66186C13.5065 4.63936 13.9125 4.61972 14.3187 4.60372C14.9563 4.57859 15.5941 4.56526 16.2322 4.57395C16.5735 4.57395 16.9148 4.56832 17.256 4.57528Z" stroke="#181818"/>
<path fill-rule="evenodd" clip-rule="evenodd" d="M13.7142 13.4285V12.2856H18.8571V13.4285H13.7142Z" fill="#181818"/>
<path d="M27.1429 24.2856V27.9999H4.85718V24.2856" stroke="#181818"/>
<path d="M9.42859 27.7144V25.4287" stroke="#181818"/>
<path d="M14 27.7143V26" stroke="#181818"/>
<path d="M18.5714 27.7144V25.4287" stroke="#181818"/>
<path d="M23.1428 27.7143V26" stroke="#181818"/>
</svg>
