<svg width="32" height="32" fill="none" xmlns="http://www.w3.org/2000/svg"><g clip-path="url(#a)"><path d="m20.247 26.29-.49-.857a1.143 1.143 0 0 0-.992-.576h-4.959c-.41 0-.789.22-.992.576l-.486.85m3.958-24.568V0v1.714Zm0 30.285v-1.713V32Zm14.023-16.286h1.689-1.689Zm-30.286 0h1.69-1.69ZM28.831 4.286l1.446-1.429-1.446 1.429Zm-24.84 0L2.547 2.857l1.446 1.429Zm26.286 24.571-1.446-1.428 1.446 1.428ZM3.992 27.43l-1.446 1.428 1.446-1.428Zm23.303-15.89a80.972 80.972 0 0 1 .125 3.354 77.437 77.437 0 0 1-.025 3.367c-.021.611-.049 1.221-.08 1.832-.026.47-.055.94-.094 1.408-.065.78-.157 1.556-.381 2.309-.236.79-.605 1.503-1.227 2.066-.397.36-.854.621-1.353.811-.592.227-1.207.354-1.833.437-.607.08-1.216.123-1.826.16-.512.031-1.024.058-1.536.08-.5.022-.999.034-1.498.047-.98.027-1.958.02-2.936.007a61 61 0 0 1-1.913-.063 71.383 71.383 0 0 1-1.671-.092c-.8-.053-1.6-.121-2.386-.299-.547-.125-1.075-.301-1.565-.579a3.86 3.86 0 0 1-1.568-1.644c-.321-.633-.494-1.311-.606-2.008a18.873 18.873 0 0 1-.178-1.712 66.364 66.364 0 0 1-.096-1.72c-.02-.454-.033-.908-.048-1.362a69.078 69.078 0 0 1 .008-4.316c.016-.484.035-.967.063-1.45.035-.603.067-1.206.12-1.807.06-.678.145-1.353.322-2.012.173-.643.43-1.248.845-1.774C6.45 5.955 7.09 5.54 7.83 5.272c.636-.232 1.296-.352 1.965-.431.603-.071 1.207-.111 1.812-.145.56-.03 1.12-.058 1.68-.08.88-.035 1.76-.053 2.64-.04.47 0 .94-.009 1.411 0 .673.015 1.345.036 2.017.064.541.023 1.082.058 1.622.093.405.026.808.058 1.21.105l.24.039c.626.083 1.241.21 1.833.436.5.19.956.452 1.353.812.622.563.99 1.275 1.227 2.066.224.753.316 1.53.38 2.309.04.468.05.57.075 1.04Z" stroke="#181818"/><path d="m12.328 26.283.486-.85c.203-.356.582-.576.992-.576h4.96c.41 0 .788.22.992.576l.489.856" stroke="#181818"/><path fill-rule="evenodd" clip-rule="evenodd" d="M21.122 22.286a.552.552 0 1 1 0 1.103.552.552 0 0 1 0-1.103Zm-10.285 0a.552.552 0 1 1-.002 1.103.552.552 0 0 1 .002-1.103ZM15.98 20a.552.552 0 1 1-.002 1.103A.552.552 0 0 1 15.98 20Zm-3.429 0a.552.552 0 1 1-.001 1.103A.552.552 0 0 1 12.55 20Zm-3.429 0a.552.552 0 1 1 0 1.103.552.552 0 0 1 0-1.103Zm10.286 0a.552.552 0 1 1-.001 1.103.552.552 0 0 1 .001-1.103Zm3.429 0a.552.552 0 1 1-.002 1.103.552.552 0 0 1 .002-1.103Zm-1.715-2.286a.552.552 0 1 1 0 1.104.552.552 0 0 1 0-1.104Zm-6.857 0a.552.552 0 1 1-.001 1.104.552.552 0 0 1 .001-1.104Zm-3.428 0a.552.552 0 1 1-.002 1.104.552.552 0 0 1 .002-1.104Zm-3.429 0a.552.552 0 1 1-.001 1.104.552.552 0 0 1 .001-1.104Zm10.286 0a.552.552 0 1 1-.002 1.104.552.552 0 0 1 .002-1.104Zm1.714-2.285a.552.552 0 1 1-.001 1.103.552.552 0 0 1 .001-1.103Zm-6.857 0a.552.552 0 1 1-.001 1.103.552.552 0 0 1 .001-1.103Zm10.286 0a.552.552 0 1 1-.002 1.103.552.552 0 0 1 .002-1.103Zm-6.857 0a.552.552 0 1 1-.002 1.103.552.552 0 0 1 .002-1.103Zm-6.858 0a.552.552 0 1 1 0 1.103.552.552 0 0 1 0-1.103Zm5.143-2.286a.552.552 0 1 1-.001 1.103.552.552 0 0 1 .001-1.103Zm-3.428 0a.552.552 0 1 1-.002 1.103.552.552 0 0 1 .002-1.103Zm-3.429 0a.552.552 0 1 1-.001 1.103.552.552 0 0 1 .001-1.103Zm10.286 0a.552.552 0 1 1-.002 1.103.552.552 0 0 1 .002-1.103Zm3.428 0a.552.552 0 1 1-.001 1.103.552.552 0 0 1 .001-1.103Zm3.429 0a.552.552 0 1 1-.001 1.103.552.552 0 0 1 .001-1.103Zm-5.143-2.286a.552.552 0 1 1-.001 1.103.552.552 0 0 1 .001-1.103Zm3.429 0a.552.552 0 1 1-.002 1.103.552.552 0 0 1 .002-1.103Zm-6.857 0a.552.552 0 1 1-.002 1.104.552.552 0 0 1 .002-1.104Zm-3.429 0a.552.552 0 1 1-.001 1.103.552.552 0 0 1 .001-1.103Zm-3.429 0a.552.552 0 1 1 0 1.103.552.552 0 0 1 0-1.103Zm8.572-2.286a.552.552 0 1 1-.002 1.104.552.552 0 0 1 .002-1.104Zm3.428 0a.552.552 0 1 1 0 1.104.552.552 0 0 1 0-1.104Zm-6.857 0a.552.552 0 1 1-.001 1.104.552.552 0 0 1 .001-1.104Zm-3.428 0a.552.552 0 1 1-.002 1.104.552.552 0 0 1 .002-1.104Z" fill="#181818"/><path d="M25.143 18.286a.552.552 0 1 0-1.103.001.552.552 0 0 0 1.103-.001Z" fill="#181818"/><path clip-rule="evenodd" d="M17.338 4.577c.672.014 1.345.035 2.017.063.541.023 1.082.058 1.623.093.721.046 1.44.11 2.151.253.618.124 1.215.309 1.769.62a3.81 3.81 0 0 1 1.406 1.348c.371.605.578 1.27.712 1.96.107.55.166 1.104.211 1.66.053.655.092 1.31.121 1.967a78.491 78.491 0 0 1 .077 4.243c-.005.492-.014.984-.03 1.476-.022.61-.049 1.222-.081 1.832-.024.47-.053.94-.093 1.408-.065.78-.157 1.556-.381 2.309-.236.79-.606 1.503-1.227 2.066a4.24 4.24 0 0 1-1.353.812c-.591.226-1.207.353-1.833.436a25.77 25.77 0 0 1-1.826.16c-.512.031-1.024.058-1.537.08-.499.023-.998.034-1.498.048a74.23 74.23 0 0 1-2.935.006 61.957 61.957 0 0 1-1.913-.062 71.741 71.741 0 0 1-1.671-.093c-.801-.053-1.6-.121-2.386-.3-.547-.123-1.075-.3-1.565-.578a3.86 3.86 0 0 1-1.568-1.644c-.322-.633-.494-1.311-.606-2.007-.09-.568-.139-1.14-.178-1.713a68.14 68.14 0 0 1-.096-1.72c-.02-.454-.034-.908-.048-1.362a68.86 68.86 0 0 1 .008-4.316c.016-.484.035-.967.063-1.45.035-.603.067-1.205.12-1.806.06-.68.145-1.354.322-2.013.173-.643.43-1.247.845-1.774.491-.625 1.132-1.037 1.872-1.307.636-.232 1.296-.352 1.965-.43a29.225 29.225 0 0 1 1.812-.146c.56-.03 1.12-.058 1.68-.08.88-.035 1.759-.053 2.64-.04.47 0 .94-.009 1.411 0Z" stroke="#181818"/><path clip-rule="evenodd" d="M17.518 3.04c.763.016 1.526.04 2.288.071.614.026 1.228.066 1.842.106.818.053 1.635.125 2.44.287.702.14 1.379.35 2.007.703a4.323 4.323 0 0 1 1.596 1.53c.42.686.655 1.44.808 2.225.12.622.187 1.251.239 1.883.06.743.104 1.486.137 2.23a89.257 89.257 0 0 1 .087 4.815 69.713 69.713 0 0 1-.035 1.674c-.023.693-.054 1.386-.09 2.079-.029.533-.061 1.066-.106 1.597-.074.885-.178 1.765-.433 2.62-.267.897-.687 1.705-1.391 2.343-.45.409-.97.706-1.535.922-.672.256-1.37.4-2.08.495-.689.091-1.38.14-2.072.182-.58.035-1.162.065-1.743.09-.567.025-1.133.038-1.7.054-1.11.03-2.22.021-3.33.007a70.445 70.445 0 0 1-2.17-.07 81.666 81.666 0 0 1-1.897-.105c-.908-.06-1.816-.138-2.706-.34-.62-.14-1.22-.341-1.776-.656a4.378 4.378 0 0 1-1.779-1.866c-.365-.718-.56-1.487-.687-2.277a21.416 21.416 0 0 1-.202-1.943c-.044-.65-.082-1.3-.11-1.951-.022-.515-.037-1.03-.054-1.547a78.119 78.119 0 0 1 .01-4.896c.017-.549.039-1.098.07-1.646.04-.683.076-1.367.137-2.049.069-.77.164-1.535.365-2.283.196-.73.487-1.415.958-2.013.558-.708 1.285-1.177 2.125-1.482.721-.263 1.47-.4 2.23-.49.683-.08 1.368-.125 2.055-.164.635-.035 1.27-.065 1.906-.09a56.49 56.49 0 0 1 2.994-.047c.534 0 1.069-.009 1.602.002Z" stroke="#181818"/></g><defs><clipPath id="a"><path fill="#fff" d="M0 0h32v32H0z"/></clipPath></defs></svg>