<svg width="32" height="32" viewBox="0 0 32 32" fill="none" xmlns="http://www.w3.org/2000/svg">
<path d="M27.2954 11.5392C27.3159 11.8729 27.3333 12.2068 27.3485 12.5408C27.3839 13.3244 27.4075 14.1084 27.4195 14.8929C27.4291 15.5234 27.4314 16.1538 27.4249 16.7841C27.4199 17.276 27.4113 17.7681 27.3944 18.2597C27.3733 18.8707 27.346 19.4816 27.3141 20.0922C27.2895 20.5619 27.2605 21.0316 27.2212 21.5003C27.1558 22.2797 27.0642 23.0557 26.8397 23.8089C26.604 24.5998 26.2342 25.3121 25.6135 25.8747C25.2162 26.2348 24.759 26.4963 24.2603 26.687C23.6685 26.9131 23.053 27.0404 22.4267 27.1234C21.8204 27.2038 21.211 27.2465 20.6009 27.2836C20.089 27.3146 19.5769 27.3409 19.0645 27.3635C18.5652 27.3856 18.0657 27.3971 17.5662 27.4108C16.5877 27.4376 15.6091 27.4293 14.6307 27.4174C13.993 27.4097 13.3554 27.3825 12.7181 27.355C12.1607 27.331 11.6035 27.2993 11.0468 27.2623C10.2459 27.209 9.44628 27.1411 8.66095 26.9629C8.11409 26.8389 7.58574 26.6624 7.09567 26.3846C6.40784 25.9947 5.88686 25.4451 5.52839 24.74C5.20645 24.107 5.03357 23.4291 4.92207 22.7328C4.8312 22.1654 4.78313 21.5935 4.74431 21.0206C4.70549 20.4478 4.67193 19.8747 4.64758 19.3009C4.62831 18.8466 4.61451 18.3923 4.59951 17.9378C4.56853 16.9991 4.56793 16.0602 4.57536 15.1213C4.57929 14.6214 4.59195 14.1214 4.60803 13.6217C4.62359 13.1382 4.64286 12.6546 4.67084 12.1716C4.70573 11.5693 4.73778 10.9668 4.79137 10.3656C4.85186 9.68683 4.93598 9.01223 5.11306 8.35271C5.28564 7.70997 5.54248 7.10575 5.95762 6.57868C6.44932 5.95439 7.08987 5.54169 7.82984 5.27211C8.46584 5.04039 9.12616 4.92019 9.79548 4.84116C10.3974 4.77008 11.0017 4.72997 11.6067 4.69642C12.1666 4.66539 12.7265 4.6383 13.2869 4.61622C14.1664 4.58156 15.046 4.56318 15.9262 4.57516C16.3969 4.57516 16.8677 4.56741 17.3383 4.57701C18.0105 4.59073 18.6827 4.61167 19.3545 4.6399C19.896 4.66268 20.437 4.69791 20.9779 4.73287C21.3821 4.75898 21.7858 4.79053 22.1876 4.83829M20.2468 26.2891L19.7576 25.4331C19.5541 25.077 19.1755 24.8572 18.7653 24.8572H13.8061C13.396 24.8572 13.0173 25.077 12.8138 25.4331L12.328 26.2832M26 3.42906V1.71533M29.7378 7.71436H31.4266M28.8315 4.28578L30.2773 2.85721" stroke="#181818"/>
<path fill-rule="evenodd" clip-rule="evenodd" d="M21.1224 22.2858C21.4268 22.2858 21.6734 22.5336 21.6734 22.8368C21.6734 23.1412 21.4268 23.3878 21.1224 23.3878C20.8193 23.3878 20.5714 23.1412 20.5714 22.8368C20.5714 22.5336 20.8193 22.2858 21.1224 22.2858ZM10.8367 22.2858C11.1411 22.2858 11.3877 22.5336 11.3877 22.8368C11.3877 23.1412 11.1411 23.3878 10.8367 23.3878C10.5335 23.3878 10.2857 23.1412 10.2857 22.8368C10.2857 22.5336 10.5335 22.2858 10.8367 22.2858ZM15.9796 20.0001C16.2839 20.0001 16.5305 20.2479 16.5305 20.5511C16.5305 20.8554 16.2839 21.1021 15.9796 21.1021C15.6764 21.1021 15.4286 20.8554 15.4286 20.5511C15.4286 20.2479 15.6764 20.0001 15.9796 20.0001ZM12.551 20.0001C12.8553 20.0001 13.102 20.2479 13.102 20.5511C13.102 20.8554 12.8553 21.1021 12.551 21.1021C12.2478 21.1021 12 20.8554 12 20.5511C12 20.2479 12.2478 20.0001 12.551 20.0001ZM9.12241 20.0001C9.42677 20.0001 9.67339 20.2479 9.67339 20.5511C9.67339 20.8554 9.42677 21.1021 9.12241 21.1021C8.81925 21.1021 8.57143 20.8554 8.57143 20.5511C8.57143 20.2479 8.81925 20.0001 9.12241 20.0001ZM19.4081 20.0001C19.7125 20.0001 19.9591 20.2479 19.9591 20.5511C19.9591 20.8554 19.7125 21.1021 19.4081 21.1021C19.105 21.1021 18.8571 20.8554 18.8571 20.5511C18.8571 20.2479 19.105 20.0001 19.4081 20.0001ZM22.8367 20.0001C23.1411 20.0001 23.3877 20.2479 23.3877 20.5511C23.3877 20.8554 23.1411 21.1021 22.8367 21.1021C22.5335 21.1021 22.2857 20.8554 22.2857 20.5511C22.2857 20.2479 22.5335 20.0001 22.8367 20.0001ZM21.1224 17.7144C21.4268 17.7144 21.6734 17.9622 21.6734 18.2654C21.6734 18.5697 21.4268 18.8163 21.1224 18.8163C20.8193 18.8163 20.5714 18.5697 20.5714 18.2654C20.5714 17.9622 20.8193 17.7144 21.1224 17.7144ZM14.2653 17.7144C14.5696 17.7144 14.8162 17.9622 14.8162 18.2654C14.8162 18.5697 14.5696 18.8163 14.2653 18.8163C13.9621 18.8163 13.7143 18.5697 13.7143 18.2654C13.7143 17.9622 13.9621 17.7144 14.2653 17.7144ZM10.8367 17.7144C11.1411 17.7144 11.3877 17.9622 11.3877 18.2654C11.3877 18.5697 11.1411 18.8163 10.8367 18.8163C10.5335 18.8163 10.2857 18.5697 10.2857 18.2654C10.2857 17.9622 10.5335 17.7144 10.8367 17.7144ZM7.40812 17.7144C7.71249 17.7144 7.9591 17.9622 7.9591 18.2654C7.9591 18.5697 7.71249 18.8163 7.40812 18.8163C7.10497 18.8163 6.85715 18.5697 6.85715 18.2654C6.85715 17.9622 7.10497 17.7144 7.40812 17.7144ZM17.6938 17.7144C17.9982 17.7144 18.2448 17.9622 18.2448 18.2654C18.2448 18.5697 17.9982 18.8163 17.6938 18.8163C17.3907 18.8163 17.1429 18.5697 17.1429 18.2654C17.1429 17.9622 17.3907 17.7144 17.6938 17.7144ZM15.9796 15.4287C16.2839 15.4287 16.5305 15.6765 16.5305 15.9797C16.5305 16.284 16.2839 16.5306 15.9796 16.5306C15.6764 16.5306 15.4286 16.284 15.4286 15.9797C15.4286 15.6765 15.6764 15.4287 15.9796 15.4287ZM19.4081 15.4287C19.7125 15.4287 19.9591 15.6765 19.9591 15.9797C19.9591 16.284 19.7125 16.5306 19.4081 16.5306C19.105 16.5306 18.8571 16.284 18.8571 15.9797C18.8571 15.6765 19.105 15.4287 19.4081 15.4287ZM12.551 15.4287C12.8553 15.4287 13.102 15.6765 13.102 15.9797C13.102 16.284 12.8553 16.5306 12.551 16.5306C12.2478 16.5306 12 16.284 12 15.9797C12 15.6765 12.2478 15.4287 12.551 15.4287ZM22.8367 15.4287C23.1411 15.4287 23.3877 15.6765 23.3877 15.9797C23.3877 16.284 23.1411 16.5306 22.8367 16.5306C22.5335 16.5306 22.2857 16.284 22.2857 15.9797C22.2857 15.6765 22.5335 15.4287 22.8367 15.4287ZM9.12241 15.4287C9.42677 15.4287 9.67339 15.6765 9.67339 15.9797C9.67339 16.284 9.42677 16.5306 9.12241 16.5306C8.81925 16.5306 8.57143 16.284 8.57143 15.9797C8.57143 15.6765 8.81925 15.4287 9.12241 15.4287ZM14.2653 13.143C14.5696 13.143 14.8162 13.3908 14.8162 13.6939C14.8162 13.9983 14.5696 14.2449 14.2653 14.2449C13.9621 14.2449 13.7143 13.9983 13.7143 13.6939C13.7143 13.3908 13.9621 13.143 14.2653 13.143ZM10.8367 13.143C11.1411 13.143 11.3877 13.3908 11.3877 13.6939C11.3877 13.9983 11.1411 14.2449 10.8367 14.2449C10.5335 14.2449 10.2857 13.9983 10.2857 13.6939C10.2857 13.3908 10.5335 13.143 10.8367 13.143ZM7.40812 13.143C7.71249 13.143 7.9591 13.3908 7.9591 13.6939C7.9591 13.9983 7.71249 14.2449 7.40812 14.2449C7.10497 14.2449 6.85715 13.9983 6.85715 13.6939C6.85715 13.3908 7.10497 13.143 7.40812 13.143ZM17.6938 13.143C17.9982 13.143 18.2448 13.3908 18.2448 13.6939C18.2448 13.9983 17.9982 14.2449 17.6938 14.2449C17.3907 14.2449 17.1429 13.9983 17.1429 13.6939C17.1429 13.3908 17.3907 13.143 17.6938 13.143ZM21.1224 13.143C21.4268 13.143 21.6734 13.3908 21.6734 13.6939C21.6734 13.9983 21.4268 14.2449 21.1224 14.2449C20.8193 14.2449 20.5714 13.9983 20.5714 13.6939C20.5714 13.3908 20.8193 13.143 21.1224 13.143ZM24.551 13.143C24.8553 13.143 25.102 13.3908 25.102 13.6939C25.102 13.9983 24.8553 14.2449 24.551 14.2449C24.2478 14.2449 24 13.9983 24 13.6939C24 13.3908 24.2478 13.143 24.551 13.143ZM9.12241 10.8572C9.42677 10.8572 9.67339 11.1051 9.67339 11.4082C9.67339 11.7126 9.42677 11.9592 9.12241 11.9592C8.81925 11.9592 8.57143 11.7126 8.57143 11.4082C8.57143 11.1051 8.81925 10.8572 9.12241 10.8572ZM19.4081 10.8572C19.7125 10.8572 19.9591 11.1051 19.9591 11.4082C19.9591 11.7126 19.7125 11.9592 19.4081 11.9592C19.105 11.9592 18.8571 11.7126 18.8571 11.4082C18.8571 11.1051 19.105 10.8572 19.4081 10.8572ZM22.8367 10.8572C23.1411 10.8572 23.3877 11.1051 23.3877 11.4082C23.3877 11.7126 23.1411 11.9592 22.8367 11.9592C22.5335 11.9592 22.2857 11.7126 22.2857 11.4082C22.2857 11.1051 22.5335 10.8572 22.8367 10.8572ZM15.9796 10.8572C16.2839 10.8572 16.5305 11.1051 16.5305 11.4082C16.5305 11.7126 16.2839 11.9592 15.9796 11.9592C15.6764 11.9592 15.4286 11.7126 15.4286 11.4082C15.4286 11.1051 15.6764 10.8572 15.9796 10.8572ZM12.551 10.8572C12.8553 10.8572 13.102 11.1051 13.102 11.4082C13.102 11.7126 12.8553 11.9592 12.551 11.9592C12.2478 11.9592 12 11.7126 12 11.4082C12 11.1051 12.2478 10.8572 12.551 10.8572ZM25.7143 4.57153C27.2922 4.57153 28.5714 5.85072 28.5714 7.42868C28.5714 9.00663 27.2922 10.2858 25.7143 10.2858C24.1363 10.2858 22.8571 9.00663 22.8571 7.42868C22.8571 5.85072 24.1363 4.57153 25.7143 4.57153ZM17.6938 8.57153C17.9982 8.57153 18.2448 8.81935 18.2448 9.12251C18.2448 9.42687 17.9982 9.67349 17.6938 9.67349C17.3907 9.67349 17.1429 9.42687 17.1429 9.12251C17.1429 8.81935 17.3907 8.57153 17.6938 8.57153ZM21.1224 8.57153C21.4268 8.57153 21.6734 8.81935 21.6734 9.12251C21.6734 9.42687 21.4268 9.67349 21.1224 9.67349C20.8193 9.67349 20.5714 9.42687 20.5714 9.12251C20.5714 8.81935 20.8193 8.57153 21.1224 8.57153ZM14.2653 8.57153C14.5696 8.57153 14.8162 8.81935 14.8162 9.12251C14.8162 9.42687 14.5696 9.67349 14.2653 9.67349C13.9621 9.67349 13.7143 9.42687 13.7143 9.12251C13.7143 8.81935 13.9621 8.57153 14.2653 8.57153ZM10.8367 8.57153C11.1411 8.57153 11.3877 8.81935 11.3877 9.12251C11.3877 9.42687 11.1411 9.67349 10.8367 9.67349C10.5335 9.67349 10.2857 9.42687 10.2857 9.12251C10.2857 8.81935 10.5335 8.57153 10.8367 8.57153Z" fill="#181818"/>
<path d="M25.1429 18.2654C25.1429 17.9622 24.8962 17.7144 24.5919 17.7144C24.2887 17.7144 24.0409 17.9622 24.0409 18.2654C24.0409 18.5697 24.2887 18.8163 24.5919 18.8163C24.8962 18.8163 25.1429 18.5697 25.1429 18.2654Z" fill="#181818"/>
</svg>
