<svg width="32" height="32" viewBox="0 0 32 32" fill="none" xmlns="http://www.w3.org/2000/svg">
<path fill-rule="evenodd" clip-rule="evenodd" d="M22.9702 7.84656C22.9702 6.98459 23.6695 6.28564 24.5311 6.28564C25.3935 6.28564 26.0928 6.98445 26.0928 7.84656C26.0928 8.70867 25.3935 9.40748 24.5311 9.40748C23.6695 9.40748 22.9702 8.70853 22.9702 7.84656Z" fill="#181818"/>
<path d="M22.9215 24.5715V20.055C22.9215 19.9518 22.9337 19.8543 22.8505 19.7911L17.6542 15.7336C17.5118 15.6248 17.4823 15.4209 17.5878 15.2753L19.0907 13.2135L19.7679 12.2844M16.5269 12.0459L18.2396 9.79261C18.302 9.70384 18.4027 9.65186 18.5099 9.65186H22.0607L24.1826 11.2854V14.2724C24.1826 14.5045 24.3708 14.6927 24.603 14.6927H27.9391M19.4574 17.1019L23.9248 11.2853M17.4567 17.4093V20.9983C17.4567 21.1814 17.2481 21.4186 17.0658 21.4186H13.1429" stroke="#181818"/>
<path d="M6.13893 10.3979C9.00576 13.3819 9.00576 18.2197 6.13893 21.2033M8.59032 7.82218C12.8239 12.2288 12.8239 19.373 8.59032 23.779M11.1429 5.71436C11.9143 6.50696 12.3047 7.01931 12.8871 7.82218C13.274 8.3556 13.6196 8.89115 13.9244 9.42864M10.8572 26.5715C11.434 25.9047 11.9525 25.238 12.4147 24.5715M4.00002 18.5146C5.16821 16.915 5.16821 14.6866 4.00002 13.0867" stroke="#181818"/>
</svg>
