<svg width="32" height="32" viewBox="0 0 32 32" fill="none" xmlns="http://www.w3.org/2000/svg">
<path fill-rule="evenodd" clip-rule="evenodd" d="M17.1998 5.57192L26.6735 21.9502C27.0284 22.5645 26.8249 23.1851 26.1147 23.1851H7.1758C6.46723 23.1851 6.08952 22.5645 6.44552 21.9502L15.9089 5.57192C16.2638 4.95763 16.8449 4.95763 17.1998 5.57192ZM9.62266 8.89935H5.36494H9.62266ZM5.36894 17.4708H2.93123H5.36894ZM7.79752 13.4708H1.10666H7.79752Z" stroke="#181818"/>
<path fill-rule="evenodd" clip-rule="evenodd" d="M16.8756 17.3224C16.8584 17.4892 16.2819 17.4635 16.267 17.3224L15.7099 11.6469C15.6636 11.1715 16.0116 10.7481 16.487 10.7007C16.963 10.6544 17.3864 11.0024 17.4327 11.4778C17.4384 11.5344 17.4373 11.5938 17.4327 11.6469L16.8756 17.3224ZM15.7099 19.2521C15.7099 18.7767 16.0944 18.3904 16.571 18.3904C17.0482 18.3904 17.4339 18.7767 17.4339 19.2521C17.4339 19.7292 17.0482 20.115 16.571 20.115C16.0944 20.115 15.7099 19.7292 15.7099 19.2521Z" fill="#181818"/>
</svg>
