<svg width="32" height="32" viewBox="0 0 32 32" fill="none" xmlns="http://www.w3.org/2000/svg">
<path fill-rule="evenodd" clip-rule="evenodd" d="M3.42871 16.2857H28.5716H3.42871ZM16.0001 3.42856C22.943 3.42856 28.5716 9.05713 28.5716 16C28.5716 22.9428 22.943 28.5714 16.0001 28.5714C9.05728 28.5714 3.42871 22.9428 3.42871 16C3.42871 9.05713 9.05728 3.42856 16.0001 3.42856Z" stroke="#242424"/>
<path fill-rule="evenodd" clip-rule="evenodd" d="M9.14258 11.5354C9.14258 10.5223 10.4997 9.14285 10.4997 9.14285C10.4997 9.14285 11.8563 10.536 11.8563 11.5354C11.8563 12.2503 11.2489 12.8303 10.4997 12.8303C9.75001 12.8303 9.14258 12.2503 9.14258 11.5354ZM14.6734 11.5354C14.6734 10.5223 16.0306 9.14285 16.0306 9.14285C16.0306 9.14285 17.3871 10.536 17.3871 11.5354C17.3871 12.2503 16.7797 12.8303 16.0306 12.8303C15.2809 12.8303 14.6734 12.2503 14.6734 11.5354ZM20.2043 11.5354C20.2043 10.5223 21.5609 9.14285 21.5609 9.14285C21.5609 9.14285 22.918 10.536 22.918 11.5354C22.918 12.2503 22.3106 12.8303 21.5609 12.8303C20.8117 12.8303 20.2043 12.2503 20.2043 11.5354ZM20.1431 22.3629H21.6597V19.972L21.586 20.1063L20.1431 22.3629ZM22.2826 22.3629H22.9591V22.8686H22.2826V24H21.6597V22.8686H19.4403V22.5034L21.6231 19.1251H22.2826V22.3629ZM16.1746 21.556L16.422 19.1251H18.9197V19.6977H16.9477L16.8003 21.0269C17.0391 20.8863 17.3106 20.816 17.614 20.816C18.0586 20.816 18.4111 20.9629 18.6723 21.256C18.9334 21.5497 19.0637 21.9463 19.0637 22.4463C19.0637 22.9486 18.9283 23.3446 18.6569 23.6331C18.386 23.9223 18.0071 24.0669 17.5203 24.0669C17.0894 24.0669 16.738 23.9474 16.4654 23.7086C16.1934 23.4697 16.038 23.1394 16.0003 22.7177H16.586C16.6243 22.9966 16.7237 23.2069 16.8843 23.3486C17.0449 23.4903 17.2569 23.5611 17.5203 23.5611C17.8083 23.5611 18.0346 23.4634 18.1986 23.2669C18.3626 23.0703 18.4443 22.7989 18.4443 22.4531C18.4443 22.1274 18.3557 21.8657 18.1786 21.668C18.0009 21.4703 17.7649 21.3714 17.47 21.3714C17.2003 21.3714 16.9877 21.4309 16.834 21.5491L16.67 21.6829L16.1746 21.556ZM11.9603 21.5657H13.1151C13.4591 21.5657 13.7226 21.4851 13.9054 21.3229C14.0883 21.1611 14.1797 20.9274 14.1797 20.6217C14.1797 20.3314 14.0883 20.0994 13.9054 19.9251C13.7226 19.7509 13.4711 19.6606 13.1523 19.6543H11.9603V21.5657ZM11.9603 22.0914V24H11.3174V19.1251H13.1151C13.6489 19.1251 14.0666 19.2611 14.3689 19.5337C14.6717 19.8057 14.8226 20.1663 14.8226 20.6149C14.8226 21.088 14.6751 21.4526 14.3791 21.708C14.0831 21.964 13.6597 22.0914 13.1083 22.0914H11.9603ZM9.57229 24H10.2151V19.1251H9.57229V24Z" fill="#242424"/>
</svg>
