<svg width="32" height="32" viewBox="0 0 32 32" fill="none" xmlns="http://www.w3.org/2000/svg">
<path fill-rule="evenodd" clip-rule="evenodd" d="M3.42857 16.2857H28.5714H3.42857ZM16 3.42859C22.9429 3.42859 28.5714 9.05716 28.5714 16C28.5714 22.9429 22.9429 28.5714 16 28.5714C9.05714 28.5714 3.42857 22.9429 3.42857 16C3.42857 9.05716 9.05714 3.42859 16 3.42859Z" stroke="#181818"/>
<path fill-rule="evenodd" clip-rule="evenodd" d="M9.14285 11.5354C9.14285 10.5223 10.5 9.14282 10.5 9.14282C10.5 9.14282 11.8566 10.536 11.8566 11.5354C11.8566 12.2503 11.2491 12.8303 10.5 12.8303C9.75028 12.8303 9.14285 12.2503 9.14285 11.5354ZM14.6737 11.5354C14.6737 10.5223 16.0309 9.14282 16.0309 9.14282C16.0309 9.14282 17.3874 10.536 17.3874 11.5354C17.3874 12.2503 16.78 12.8303 16.0309 12.8303C15.2811 12.8303 14.6737 12.2503 14.6737 11.5354ZM18.8185 19.1091V19.6816H16.8464L16.6991 21.0109L16.8034 20.9549C17.0161 20.8516 17.2525 20.7999 17.5127 20.7999C17.9569 20.7999 18.3096 20.9467 18.5708 21.2402C18.8319 21.5338 18.9625 21.9305 18.9625 22.4305C18.9625 22.9328 18.8269 23.3284 18.5557 23.6175C18.2845 23.9065 17.9056 24.0511 17.419 24.0511C16.9882 24.0511 16.6366 23.9316 16.3643 23.6928C16.092 23.454 15.9368 23.1236 15.8989 22.7017H16.4848L16.5019 22.8031C16.5486 23.0323 16.6422 23.2088 16.7828 23.3329C16.9435 23.4746 17.1556 23.5455 17.419 23.5455C17.7069 23.5455 17.9329 23.4473 18.097 23.2508C18.261 23.0544 18.3431 22.7832 18.3431 22.4372C18.3431 22.1113 18.2543 21.8496 18.0769 21.6521C17.8994 21.4545 17.6634 21.3557 17.3687 21.3557C17.0987 21.3557 16.8866 21.4149 16.7326 21.5332L16.5685 21.6671L16.073 21.5399L16.3208 19.1091H18.8185ZM22.7833 19.1091V19.6816H20.8112L20.6638 21.0109L20.7682 20.9549C20.9808 20.8516 21.2172 20.7999 21.4775 20.7999C21.9216 20.7999 22.2743 20.9467 22.5355 21.2402C22.7966 21.5338 22.9272 21.9305 22.9272 22.4305C22.9272 22.9328 22.7916 23.3284 22.5204 23.6175C22.2492 23.9065 21.8703 24.0511 21.3837 24.0511C20.9529 24.0511 20.6013 23.9316 20.329 23.6928C20.0567 23.454 19.9016 23.1236 19.8636 22.7017H20.4496L20.4667 22.8031C20.5133 23.0323 20.6069 23.2088 20.7475 23.3329C20.9083 23.4746 21.1203 23.5455 21.3837 23.5455C21.6716 23.5455 21.8977 23.4473 22.0617 23.2508C22.2258 23.0544 22.3078 22.7832 22.3078 22.4372C22.3078 22.1113 22.2191 21.8496 22.0416 21.6521C21.8642 21.4545 21.6281 21.3557 21.3335 21.3557C21.0634 21.3557 20.8513 21.4149 20.6973 21.5332L20.5333 21.6671L20.0377 21.5399L20.2855 19.1091H22.7833ZM10.2194 19.1091V23.9841H9.57656V19.1091H10.2194ZM13.3069 19.1091L13.4495 19.1125C13.9154 19.135 14.2859 19.27 14.5608 19.5176C14.8633 19.7899 15.0145 20.1504 15.0145 20.599C15.0145 21.0723 14.8666 21.4367 14.5709 21.6922C14.2751 21.9478 13.8516 22.0756 13.3002 22.0756H12.1518V23.9841H11.5089V19.1091H13.3069ZM13.3437 19.6381H12.1518V21.5499H13.3069C13.6507 21.5499 13.9141 21.469 14.0971 21.3072C14.2801 21.1454 14.3716 20.9115 14.3716 20.6057C14.3716 20.3156 14.2801 20.0834 14.0971 19.9093C13.9141 19.7352 13.6629 19.6448 13.3437 19.6381ZM21.5611 9.14282C21.5611 9.14282 22.9183 10.536 22.9183 11.5354C22.9183 12.2503 22.3109 12.8303 21.5611 12.8303C20.812 12.8303 20.2046 12.2503 20.2046 11.5354C20.2046 10.5223 21.5611 9.14282 21.5611 9.14282Z" fill="#181818"/>
</svg>
