<svg width="32" height="32" viewBox="0 0 32 32" fill="none" xmlns="http://www.w3.org/2000/svg">
<path fill-rule="evenodd" clip-rule="evenodd" d="M3.42857 16.2857H28.5714H3.42857ZM16 3.42859C22.9429 3.42859 28.5714 9.05716 28.5714 16C28.5714 22.9429 22.9429 28.5714 16 28.5714C9.05714 28.5714 3.42857 22.9429 3.42857 16C3.42857 9.05716 9.05714 3.42859 16 3.42859Z" stroke="#181818"/>
<path fill-rule="evenodd" clip-rule="evenodd" d="M9.14285 11.5354C9.14285 10.5223 10.5 9.14282 10.5 9.14282C10.5 9.14282 11.8566 10.536 11.8566 11.5354C11.8566 12.2503 11.2491 12.8302 10.5 12.8302C9.75028 12.8302 9.14285 12.2503 9.14285 11.5354ZM14.6737 11.5354C14.6737 10.5223 16.0309 9.14282 16.0309 9.14282C16.0309 9.14282 17.3874 10.536 17.3874 11.5354C17.3874 12.2503 16.78 12.8302 16.0309 12.8302C15.2811 12.8302 14.6737 12.2503 14.6737 11.5354ZM21.5611 9.14282C21.5611 9.14282 22.9183 10.536 22.9183 11.5354C22.9183 12.2503 22.3109 12.8302 21.5611 12.8302C20.812 12.8302 20.2046 12.2503 20.2046 11.5354C20.2046 10.5223 21.5611 9.14282 21.5611 9.14282Z" fill="#181818"/>
<path d="M10.2857 24.0001H9.64285V19.1251H10.2857V24.0001Z" fill="#181818"/>
<path d="M12.198 22.0916V24.0001H11.5552V19.1251H13.3532C13.8866 19.1251 14.304 19.2612 14.6054 19.5335C14.909 19.8059 15.0607 20.1663 15.0607 20.615C15.0607 21.0882 14.9123 21.4532 14.6154 21.7099C14.3208 21.9643 13.8978 22.0916 13.3465 22.0916H12.198ZM12.198 21.5659H13.3532C13.6969 21.5659 13.9603 21.4855 14.1433 21.3248C14.3264 21.1619 14.4179 20.9275 14.4179 20.6217C14.4179 20.3315 14.3264 20.0994 14.1433 19.9253C13.9603 19.7512 13.7092 19.6608 13.39 19.6541H12.198V21.5659Z" fill="#181818"/>
<path d="M18.4005 19.1217V19.6474H18.2867C17.8046 19.6563 17.4206 19.7992 17.1349 20.0759C16.8492 20.3527 16.684 20.7422 16.6394 21.2445C16.8961 20.9498 17.2465 20.8025 17.6907 20.8025C18.1148 20.8025 18.453 20.9521 18.7052 21.2512C18.9597 21.5503 19.0869 21.9364 19.0869 22.4097C19.0869 22.9119 18.9496 23.3137 18.6751 23.615C18.4028 23.9163 18.0367 24.067 17.5769 24.067C17.1104 24.067 16.732 23.8884 16.4418 23.5313C16.1516 23.1719 16.0066 22.7099 16.0066 22.1451V21.9074C16.0066 21.0101 16.1974 20.3248 16.5791 19.8516C16.963 19.3762 17.5333 19.1329 18.29 19.1217H18.4005ZM17.5869 21.3181C17.3749 21.3181 17.1796 21.3817 17.001 21.509C16.8224 21.6362 16.6985 21.7958 16.6293 21.9878V22.2155C16.6293 22.6172 16.7197 22.9409 16.9005 23.1864C17.0813 23.432 17.3068 23.5547 17.5769 23.5547C17.8559 23.5547 18.0746 23.4521 18.2331 23.2467C18.3938 23.0413 18.4742 22.7724 18.4742 22.4398C18.4742 22.105 18.3927 21.8349 18.2298 21.6295C18.0691 21.4219 17.8548 21.3181 17.5869 21.3181Z" fill="#181818"/>
<path d="M19.9676 21.5559L20.2154 19.1251H22.7132V19.6976H20.7411L20.5937 21.0268C20.8326 20.8862 21.1038 20.8159 21.4074 20.8159C21.8516 20.8159 22.2042 20.9632 22.4654 21.2579C22.7266 21.5503 22.8571 21.9465 22.8571 22.4465C22.8571 22.9487 22.721 23.3449 22.4487 23.6351C22.1786 23.923 21.8002 24.067 21.3136 24.067C20.8828 24.067 20.5312 23.9476 20.2589 23.7088C19.9866 23.4699 19.8315 23.1396 19.7935 22.7177H20.3795C20.4174 22.9967 20.5167 23.2076 20.6775 23.3505C20.8382 23.4911 21.0502 23.5614 21.3136 23.5614C21.6016 23.5614 21.827 23.4632 21.99 23.2668C22.1551 23.0704 22.2377 22.7992 22.2377 22.4532C22.2377 22.1273 22.1484 21.8661 21.9699 21.6697C21.7935 21.471 21.558 21.3717 21.2634 21.3717C20.9933 21.3717 20.7812 21.4309 20.6272 21.5492L20.4632 21.6831L19.9676 21.5559Z" fill="#181818"/>
</svg>
