<svg width="32" height="32" viewBox="0 0 32 32" fill="none" xmlns="http://www.w3.org/2000/svg">
<path d="M24.035 30.213C24.075 29.8918 24.0909 29.5676 24.1158 29.2446C24.147 28.8399 24.1781 28.4351 24.206 28.0301C24.2229 27.785 24.2384 27.5396 24.2465 27.2941C24.3248 24.9073 24.3258 22.5195 24.3258 20.1318C24.3258 19.3904 24.3233 18.649 24.319 17.9076C24.315 17.22 24.3096 16.5323 24.3 15.8447C24.2922 15.2898 24.2828 14.7347 24.2635 14.1801C24.2498 13.7868 24.2181 13.3941 24.1949 13.0012C24.1804 12.7559 24.1708 12.5103 24.1517 12.2654C24.1449 12.1769 24.1376 12.0884 24.1301 12M5.11489 29.7466C5.07944 29.4087 5.05796 29.0693 5.03334 28.7304C5.00163 28.2939 4.96314 27.8575 4.94526 27.4203C4.91842 26.765 4.89778 26.1092 4.89083 25.4534C4.87447 23.9077 4.86773 22.3618 4.85715 20.816C4.86748 19.1945 4.8696 17.5728 4.89129 15.9515C4.90325 15.0564 4.94427 14.1617 4.97983 13.2671C4.99679 12.8392 5.02554 12.4116 5.05986 11.9848C5.09563 11.5396 5.14466 11.0956 5.18755 10.6511C5.23073 10.2036 5.30184 9.76102 5.41648 9.32589C5.53662 8.87022 5.70836 8.4371 5.97813 8.04751C6.2648 7.6335 6.63214 7.31149 7.07828 7.07604C7.45902 6.87506 7.86141 6.73753 8.28321 6.66335C8.66586 6.59611 9.05119 6.54162 9.43715 6.49717C9.73373 6.46303 10.0331 6.45291 10.3313 6.43273C10.7805 6.40232 11.2292 6.36423 11.6789 6.34433C12.2868 6.31746 12.8952 6.29513 13.5036 6.28843C14.2006 6.28074 14.8979 6.29139 15.595 6.29587C15.942 6.29809 16.2892 6.29756 16.6358 6.31037C16.9955 6.32362 17.3549 6.34399 17.7143 6.36385" stroke="#181818"/>
<path fill-rule="evenodd" clip-rule="evenodd" d="M9.4567 24.8929C9.77229 24.8929 10.0281 25.1487 10.0281 25.4643C10.0281 25.7799 9.77229 26.0357 9.4567 26.0357C9.14111 26.0357 8.88527 25.7799 8.88527 25.4643C8.88527 25.1487 9.14111 24.8929 9.4567 24.8929ZM14.5996 24.8929C14.9151 24.8929 15.171 25.1487 15.171 25.4643C15.171 25.7799 14.9151 26.0357 14.5996 26.0357C14.284 26.0357 14.0281 25.7799 14.0281 25.4643C14.0281 25.1487 14.284 24.8929 14.5996 24.8929ZM19.7424 24.8929C20.058 24.8929 20.3138 25.1487 20.3138 25.4643C20.3138 25.7799 20.058 26.0357 19.7424 26.0357C19.4268 26.0357 19.171 25.7799 19.171 25.4643C19.171 25.1487 19.4268 24.8929 19.7424 24.8929ZM9.4567 20.8929C9.77229 20.8929 10.0281 21.1487 10.0281 21.4643C10.0281 21.7799 9.77229 22.0357 9.4567 22.0357C9.14111 22.0357 8.88527 21.7799 8.88527 21.4643C8.88527 21.1487 9.14111 20.8929 9.4567 20.8929ZM14.5996 20.8929C14.9151 20.8929 15.171 21.1487 15.171 21.4643C15.171 21.7799 14.9151 22.0357 14.5996 22.0357C14.284 22.0357 14.0281 21.7799 14.0281 21.4643C14.0281 21.1487 14.284 20.8929 14.5996 20.8929ZM19.7424 20.8929C20.058 20.8929 20.3138 21.1487 20.3138 21.4643C20.3138 21.7799 20.058 22.0357 19.7424 22.0357C19.4268 22.0357 19.171 21.7799 19.171 21.4643C19.171 21.1487 19.4268 20.8929 19.7424 20.8929ZM9.4567 16.8929C9.77229 16.8929 10.0281 17.1487 10.0281 17.4643C10.0281 17.7799 9.77229 18.0357 9.4567 18.0357C9.14111 18.0357 8.88527 17.7799 8.88527 17.4643C8.88527 17.1487 9.14111 16.8929 9.4567 16.8929ZM14.5996 16.8929C14.9151 16.8929 15.171 17.1487 15.171 17.4643C15.171 17.7799 14.9151 18.0357 14.5996 18.0357C14.284 18.0357 14.0281 17.7799 14.0281 17.4643C14.0281 17.1487 14.284 16.8929 14.5996 16.8929ZM19.7424 16.8929C20.058 16.8929 20.3138 17.1487 20.3138 17.4643C20.3138 17.7799 20.058 18.0357 19.7424 18.0357C19.4268 18.0357 19.171 17.7799 19.171 17.4643C19.171 17.1487 19.4268 16.8929 19.7424 16.8929ZM9.4567 12.8929C9.77229 12.8929 10.0281 13.1487 10.0281 13.4643C10.0281 13.7799 9.77229 14.0357 9.4567 14.0357C9.14111 14.0357 8.88527 13.7799 8.88527 13.4643C8.88527 13.1487 9.14111 12.8929 9.4567 12.8929ZM14.5996 12.8929C14.9151 12.8929 15.171 13.1487 15.171 13.4643C15.171 13.7799 14.9151 14.0357 14.5996 14.0357C14.284 14.0357 14.0281 13.7799 14.0281 13.4643C14.0281 13.1487 14.284 12.8929 14.5996 12.8929ZM19.7424 12.8929C20.058 12.8929 20.3138 13.1487 20.3138 13.4643C20.3138 13.7799 20.058 14.0357 19.7424 14.0357C19.4268 14.0357 19.171 13.7799 19.171 13.4643C19.171 13.1487 19.4268 12.8929 19.7424 12.8929Z" fill="#181818"/>
<path d="M22.2857 10.8571C23.8637 10.8571 25.1429 9.57796 25.1429 8C25.1429 6.42204 23.8637 5.14286 22.2857 5.14286C20.7078 5.14286 19.4286 6.42204 19.4286 8C19.4286 9.57796 20.7078 10.8571 22.2857 10.8571Z" fill="#181818"/>
<path d="M22.5479 3.99944V2.28571M26.2857 8.28474H27.9745M25.3794 4.85617L26.8253 3.42759" stroke="#181818"/>
</svg>
