<svg width="32" height="32" viewBox="0 0 32 32" fill="none" xmlns="http://www.w3.org/2000/svg">
<path d="M23.8997 22.5307C26.1843 21.1313 27.7763 18.585 27.7763 15.6753C27.7763 12.7661 26.1843 10.2204 23.8997 8.82043M15.1429 5.71432V26M10 11.7143V19.7143M21.6614 19.7247C23.0106 18.8984 23.9512 17.3944 23.9512 15.6755C23.9512 13.9572 23.0106 12.4532 21.6614 11.6264M16.2857 4.85718H15.8486L10.0177 10.5715H6.00001C5.05323 10.5715 4.28572 11.339 4.28572 12.2857V19.1429C4.28572 20.0897 5.05323 20.8572 6.00001 20.8572H10.0177L15.8486 26.5715H16.2857C16.9169 26.5715 17.4286 26.0598 17.4286 25.4286V6.00003C17.4286 5.36885 16.9169 4.85718 16.2857 4.85718Z" stroke="#181818"/>
<path fill-rule="evenodd" clip-rule="evenodd" d="M17.6731 18.5687H17.5954V12.8013H17.6731C18.6326 12.8013 19.4171 13.5858 19.4171 14.5447V16.8253C19.4171 17.7841 18.6326 18.5687 17.6731 18.5687Z" fill="#181818"/>
</svg>
