<svg xmlns="http://www.w3.org/2000/svg" fill="currentColor" viewBox="0 0 56 56" width="1em" height="1em" class="icon-56 responsive"><path fill="currentColor" d="M42.463 26.4074C42.463 26.1313 42.2392 25.9074 41.963 25.9074C41.6869 25.9074 41.463 26.1313 41.463 26.4074H42.463ZM14.5371 26.4074C14.5371 26.1313 14.3133 25.9074 14.0371 25.9074C13.761 25.9074 13.5371 26.1313 13.5371 26.4074H14.5371ZM27.5001 49.5C27.5001 49.7761 27.7239 50 28.0001 50C28.2762 50 28.5001 49.7761 28.5001 49.5H27.5001ZM20.4816 49C20.2054 49 19.9816 49.2239 19.9816 49.5C19.9816 49.7761 20.2054 50 20.4816 50V49ZM35.5186 50C35.7947 50 36.0186 49.7761 36.0186 49.5C36.0186 49.2239 35.7947 49 35.5186 49V50ZM41.463 26.4074C41.463 33.8428 35.4355 39.8704 28.0001 39.8704V40.8704C35.9877 40.8704 42.463 34.3951 42.463 26.4074H41.463ZM28.0001 39.8704C20.5647 39.8704 14.5371 33.8428 14.5371 26.4074H13.5371C13.5371 34.3951 20.0124 40.8704 28.0001 40.8704V39.8704ZM27.5001 40.3704V49.5H28.5001V40.3704H27.5001ZM36.0927 14.5926V26.4074H37.0927V14.5926H36.0927ZM19.9075 26.4074V14.5926H18.9075V26.4074H19.9075ZM28.0001 34.5C23.5307 34.5 19.9075 30.8768 19.9075 26.4074H18.9075C18.9075 31.4291 22.9784 35.5 28.0001 35.5V34.5ZM36.0927 26.4074C36.0927 30.8768 32.4695 34.5 28.0001 34.5V35.5C33.0218 35.5 37.0927 31.4291 37.0927 26.4074H36.0927ZM28.0001 6.5C32.4695 6.5 36.0927 10.1232 36.0927 14.5926H37.0927C37.0927 9.57089 33.0218 5.5 28.0001 5.5V6.5ZM28.0001 5.5C22.9784 5.5 18.9075 9.57089 18.9075 14.5926H19.9075C19.9075 10.1232 23.5307 6.5 28.0001 6.5V5.5ZM20.4816 50H35.5186V49H20.4816V50Z"></path></svg>