<svg width="32" height="32" viewBox="0 0 32 32" fill="none" xmlns="http://www.w3.org/2000/svg">
<path d="M11.7678 23.0728L15.7718 27.0763C16.0491 27.2984 16.768 26.9116 17.0927 26.6904C17.3105 26.4727 17.4328 26.1774 17.4328 25.8695V17.0351" stroke="#181818" stroke-miterlimit="10"/>
<path d="M17.4269 12.0634V6.01815C17.4269 5.71023 17.3046 5.41493 17.0868 5.1972C17.0178 5.08384 16.6662 4.85714 15.8119 4.85714L9.85925 10.6889H5.74843C5.2835 10.6924 4.8388 10.8796 4.51129 11.2095C4.18377 11.5395 3.99999 11.9855 4 12.4504V19.4565C4 19.9202 4.18421 20.3648 4.5121 20.6927C4.84 21.0205 5.28472 21.2047 5.74843 21.2047H8.00404" stroke="#181818" stroke-miterlimit="10"/>
<path fill-rule="evenodd" clip-rule="evenodd" d="M19.2823 15.3724V17.0805C19.2823 17.5525 19.0957 18.0053 18.7632 18.3403C18.4307 18.6753 17.9792 18.8652 17.5072 18.8687H17.4328V17.0805L19.2823 15.3724Z" fill="#181818" stroke="#181818" stroke-miterlimit="10"/>
<path d="M21.7514 20.0438C22.4213 19.6439 22.984 19.0873 23.3912 18.4219C23.7984 17.7565 24.0379 17.0021 24.0892 16.2237C24.1404 15.4452 24.0017 14.666 23.6852 13.953C23.3686 13.24 22.8837 12.6145 22.2719 12.1303" stroke="#181818" stroke-miterlimit="10"/>
<path d="M24.047 22.9127C25.1838 22.228 26.1366 21.2765 26.8229 20.1407C27.5093 19.005 27.9085 17.7191 27.986 16.3944C28.0636 15.0697 27.8171 13.746 27.268 12.5379C26.7189 11.3299 25.8836 10.2738 24.8345 9.46104M9.83266 11.8631V20.0302" stroke="#181818" stroke-miterlimit="10"/>
<path d="M25.4484 6.17824L6.54932 25.7286" stroke="#181818" stroke-miterlimit="10"/>
</svg>
