<svg width="32" height="32" viewBox="0 0 32 32" fill="none" xmlns="http://www.w3.org/2000/svg">
<path d="M10.2988 7.00787C10.4278 8.4138 10.6213 13.5322 10.2988 25.0247M21.9165 7.00787C21.7876 8.4138 21.5941 13.5322 21.9165 25.0247" stroke="#242424" stroke-miterlimit="10"/>
<path d="M9.06015 7.68194L10.3442 6.85712H21.7721L22.992 7.68194V24.7241L21.7721 25.1428H10.2928L9.00879 24.7241L9.06015 7.68194Z" stroke="#242424" stroke-miterlimit="10"/>
<path d="M13.7148 16H18.2863" stroke="#242424" stroke-width="2.11765" stroke-miterlimit="10"/>
<path d="M6.85742 2.28571C4.14585 6.17313 2.55563 10.9009 2.55563 16C2.55563 21.0991 4.14585 25.8268 6.85742 29.7143" stroke="#242424"/>
<path d="M25.1435 2.28571C27.8551 6.17313 29.4453 10.9009 29.4453 16C29.4453 21.0991 27.8551 25.8268 25.1435 29.7143" stroke="#242424"/>
</svg>
