<svg width="32" height="32" viewBox="0 0 32 32" fill="none" xmlns="http://www.w3.org/2000/svg">
<path fill-rule="evenodd" clip-rule="evenodd" d="M17.6059 2.29238C18.4126 2.30884 19.2193 2.33397 20.0254 2.36785C20.6752 2.39519 21.3244 2.43746 21.9735 2.47941C22.8392 2.53533 23.7028 2.61203 24.5549 2.78299C25.2968 2.93182 26.013 3.15381 26.6772 3.52635C27.3799 3.9205 27.9435 4.45876 28.3649 5.14478C28.8105 5.8703 29.0581 6.66863 29.2196 7.49797C29.3479 8.15642 29.4183 8.82187 29.4724 9.48988C29.5361 10.2754 29.5825 11.0618 29.6182 11.8489C29.6607 12.7892 29.689 13.73 29.7034 14.6715C29.7149 15.4281 29.7176 16.1845 29.7099 16.9409C29.7039 17.5312 29.6935 18.1216 29.6732 18.7116C29.648 19.4449 29.6152 20.1779 29.5769 20.9106C29.5474 21.4743 29.5127 22.0379 29.4655 22.6004C29.387 23.5356 29.2771 24.4668 29.0077 25.3706C28.7249 26.3198 28.281 27.1745 27.5362 27.8496C27.0594 28.2817 26.5109 28.5956 25.9123 28.8243C25.2022 29.0957 24.4636 29.2485 23.712 29.3481C22.9844 29.4446 22.2533 29.4958 21.5211 29.5402C20.9068 29.5775 20.2923 29.609 19.6774 29.6362C19.0782 29.6626 18.4789 29.6764 17.8795 29.6929C16.7052 29.7251 15.5309 29.7152 14.3568 29.7009C13.5916 29.6916 12.8265 29.659 12.0618 29.626C11.3929 29.5972 10.7243 29.5591 10.0562 29.5147C9.09511 29.4508 8.13554 29.3693 7.19315 29.1555C6.53692 29.0066 5.9029 28.7948 5.31482 28.4615C4.48941 27.9936 3.86424 27.334 3.43407 26.488C3.04775 25.7283 2.8403 24.9149 2.70649 24.0793C2.59745 23.3985 2.53977 22.7122 2.49318 22.0247C2.44659 21.3373 2.40632 20.6496 2.37711 19.9611C2.35398 19.4159 2.33742 18.8707 2.31943 18.3254C2.28224 17.1989 2.28153 16.0722 2.29044 14.9455C2.29516 14.3456 2.31035 13.7457 2.32964 13.146C2.34831 12.5658 2.37145 11.9854 2.40502 11.4058C2.44689 10.6831 2.48534 9.96013 2.54966 9.23867C2.62224 8.42417 2.72318 7.61465 2.93568 6.82322C3.14278 6.05194 3.45099 5.32687 3.94915 4.69439C4.53919 3.94524 5.30786 3.45 6.19582 3.1265C6.95902 2.84844 7.7514 2.7042 8.55459 2.60936C9.2769 2.52406 10.0021 2.47593 10.7281 2.43567C11.3999 2.39844 12.0719 2.36593 12.7442 2.33944C13.7996 2.29784 14.8552 2.27578 15.9114 2.29016C16.4763 2.29016 17.0413 2.28086 17.6059 2.29238Z" stroke="#181818" stroke-width="0.96"/>
<path fill-rule="evenodd" clip-rule="evenodd" d="M12.7086 16.5486V15.4514H19.2914V16.5486H12.7086Z" fill="#181818"/>
<path d="M30.8571 1.14282L1.14285 30.8571" stroke="#181818"/>
</svg>
