<svg width="32" height="32" viewBox="0 0 32 32" fill="none" xmlns="http://www.w3.org/2000/svg">
<path d="M14 18.1428V11.0178L12.6853 8.64904C12.4361 8.21777 12.4361 7.6866 12.6853 7.25534L14.0524 4.88782H14.4293V6.56102C14.4293 7.40584 15.1843 8.07486 16.0557 7.93322C16.7399 7.82192 17.2142 7.17945 17.2142 6.4864V4.88782H17.591L18.9582 7.25534C19.2086 7.6866 19.2086 8.21777 18.9582 8.64904L17.4286 11.0178V14.7142V12.5714M25.9568 6.23895L5.74527 26.4493" stroke="#181818"/>
<path fill-rule="evenodd" clip-rule="evenodd" d="M12.4354 23.9713C12.1376 24.4853 12.1376 25.1256 12.4379 25.6453L13.8049 28.014L13.8874 28.1569H14.715V26.2726C14.715 25.6435 15.3103 24.9787 16 24.9787C16.6877 24.9787 17.1429 25.4761 17.1429 26.198V28.1569H17.756L19.2056 25.6452C19.5072 25.1258 19.5072 24.485 19.2051 23.9662L17.7143 21.657V16.3203L13.7143 20.3834V21.6672L12.4354 23.9713Z" fill="#181818"/>
</svg>
