<svg xmlns="http://www.w3.org/2000/svg" fill="currentColor" viewBox="0 0 56 56" width="1em" height="1em" class="icon-56 responsive"><path fill="currentColor" fill-rule="evenodd" d="M32.5 29V48H33.5V29H37.5V40.2H38.5V29H42.5V32H43.5V29H47.5V30.5H48.5V25H47.5V27H43.5V24H42.5V27H38.5V16H37.5V27H33.5V8H32.5V27H28.5V14H27.5V27H23.5V19H22.5V27H18.5V16H17.5V27H13.5L13.5 21H12.5L12.5 27H8.5L8.5 25H7.5V31H8.5L8.5 29H12.5L12.5 35H13.5L13.5 29H17.5V40H18.5V29H22.5V38H23.5V29H27.5V42H28.5V29H32.5Z" clip-rule="evenodd"></path></svg>