<svg xmlns="http://www.w3.org/2000/svg" viewBox="0 0 56 56" width="1em" height="1em" class="icon-96">
  <path fill="white" fill-rule="evenodd" d="M42.4909 21.4995C41.7899 21.4995 41.0049 20.6835 41.0049 19.9995H43.9789C43.9789 20.6835 43.1929 21.4995 42.4909 21.4995ZM38.2749 14.2995C38.2749 12.3655 39.6099 10.8085 41.4599 10.3705V9.93451C41.4599 9.43651 41.9059 8.99951 42.4159 8.99951C42.9249 8.99951 43.3699 9.43651 43.3699 9.93451V10.3705C45.2209 10.8085 46.5589 12.3655 46.5589 14.2995V17.1065L47.8339 18.3535V18.9775H36.9999V18.3535L38.2749 17.1065V14.2995ZM9 14.4995C9 13.6717 9.67214 12.9995 10.5 12.9995C11.3279 12.9995 12 13.6717 12 14.4995C12 15.3274 11.3279 15.9995 10.5 15.9995C9.67214 15.9995 9 15.3274 9 14.4995ZM10.5 11.9995C9.11986 11.9995 8 13.1194 8 14.4995C8 15.8797 9.11986 16.9995 10.5 16.9995C11.8801 16.9995 13 15.8797 13 14.4995C13 13.1194 11.8801 11.9995 10.5 11.9995ZM16 14.4995C16 13.6717 16.6721 12.9995 17.5 12.9995C18.3279 12.9995 19 13.6717 19 14.4995C19 15.3274 18.3279 15.9995 17.5 15.9995C16.6721 15.9995 16 15.3274 16 14.4995ZM17.5 11.9995C16.1199 11.9995 15 13.1194 15 14.4995C15 15.8797 16.1199 16.9995 17.5 16.9995C18.8801 16.9995 20 15.8797 20 14.4995C20 13.1194 18.8801 11.9995 17.5 11.9995ZM23 15.6705C23 14.3885 23.871 13.3565 25 13.3565C25.5934 13.3565 26.0792 13.5952 26.4242 14.0006C26.7743 14.4121 27 15.0221 27 15.7815V30.5115H28V22.271L28.1386 22.3767C28.5357 21.8559 29.163 21.5205 29.871 21.5205C31.0739 21.5205 32.046 22.4927 32.046 23.6955V26.3725V30.2775H33.046V26.3725C33.046 25.1703 34.0185 24.1955 35.223 24.1955C36.4244 24.1955 37.398 25.1702 37.398 26.3725V29.0485V30.2775H38.398V29.0485C38.398 27.8458 39.371 26.8725 40.575 26.8725C41.8364 26.8725 43 27.9008 43 29.0485V35.5635H44V29.0485C44 27.2382 42.2716 25.8725 40.575 25.8725C39.7321 25.8725 38.9664 26.1999 38.398 26.7344V26.3725C38.398 24.6189 36.9776 23.1955 35.223 23.1955C34.3797 23.1955 33.6142 23.5232 33.046 24.0579V23.6955C33.046 21.9404 31.6261 20.5205 29.871 20.5205C29.1712 20.5205 28.5244 20.7461 28 21.1281V15.7815C28 14.8279 27.7157 13.9754 27.1858 13.3526C26.6508 12.7239 25.8866 12.3565 25 12.3565C23.171 12.3565 22 13.9966 22 15.6705V32.1233C21.4316 31.59 20.6665 31.2635 19.825 31.2635C18.0711 31.2635 16.65 32.6831 16.65 34.4375V35.4015C16.65 41.0846 19.9745 45.9883 24.7853 48.2761L25.2147 47.373C20.7395 45.2447 17.65 40.6845 17.65 35.4015V34.4375C17.65 33.2359 18.6229 32.2635 19.825 32.2635C20.9969 32.2635 21.9507 33.1858 22 34.3434V35.7555H23V34.4375H23.002C23.002 34.3994 23.0013 34.3615 23 34.3237V15.6705Z" clip-rule="evenodd"></path>
</svg>
