<svg width="32" height="32" viewBox="0 0 32 32" fill="none" xmlns="http://www.w3.org/2000/svg">
<path fill-rule="evenodd" clip-rule="evenodd" d="M19.7849 18.8299C19.2347 17.2207 17.7255 16.0556 15.9295 16.0556C14.1335 16.0556 12.6244 17.2207 12.0741 18.8299C10.3838 20.0361 9.27352 22.0041 9.27352 24.2384C9.27352 27.9144 12.2535 25.1213 15.9295 25.1213C19.6061 25.1213 22.5855 27.9144 22.5855 24.2384C22.5855 22.0041 21.4752 20.0361 19.7849 18.8299ZM9.77866 9.039C9.77866 10.3316 10.8261 11.3784 12.1181 11.3784C13.4112 11.3784 14.4592 10.3316 14.4592 9.039C14.4592 7.74585 13.4112 5.42871 12.1181 5.42871C10.8261 5.42871 9.77866 7.74585 9.77866 9.039ZM4.28552 15.3899C4.28552 16.9104 5.51809 18.1424 7.03809 18.1424C8.55752 18.1424 9.78952 16.9104 9.78952 15.3899C9.78952 13.8693 8.55752 11.367 7.03809 11.367C5.51809 11.367 4.28552 13.8693 4.28552 15.3899ZM22.069 15.3899C22.069 13.8693 23.3009 11.367 24.8215 11.367C26.3409 11.367 27.573 13.8693 27.573 15.3899C27.573 16.9104 26.3409 18.1424 24.8215 18.1424C23.3009 18.1424 22.069 16.9104 22.069 15.3899ZM17.3998 9.039C17.3998 7.74585 18.4478 5.42871 19.7398 5.42871C21.033 5.42871 22.081 7.74585 22.081 9.039C22.081 10.3316 21.033 11.3784 19.7398 11.3784C18.4478 11.3784 17.3998 10.3316 17.3998 9.039Z" stroke="#181818"/>
<path fill-rule="evenodd" clip-rule="evenodd" d="M13.6823 25.1104C13.6823 23.8487 14.7063 22.8247 15.968 22.8247C17.2297 22.8247 18.2537 23.8487 18.2537 25.1104C18.2537 26.3721 17.2297 24.9527 15.968 24.9527C14.7063 24.9527 13.6823 26.3721 13.6823 25.1104Z" fill="#181818"/>
</svg>
