<svg width="32" height="32" viewBox="0 0 32 32" fill="none" xmlns="http://www.w3.org/2000/svg">
<path fill-rule="evenodd" clip-rule="evenodd" d="M17.3171 12.3833C17.3171 11.8559 17.7451 11.4285 18.2719 11.4285C18.7994 11.4285 19.2274 11.8559 19.2274 12.3833C19.2274 12.9108 18.7994 13.3382 18.2719 13.3382C17.7451 13.3382 17.3171 12.9108 17.3171 12.3833Z" fill="#181818"/>
<path d="M12.2161 15.1428H11.0681M12.2161 18.5714H11.0681M12.2161 16.8571H9.91891M13.9303 18.2857V20.5714C13.9303 20.6834 13.7561 20.8571 13.6446 20.8571H11.3589M15.3583 15.0983L14.9441 15.6663L14.0246 16.9274C13.9601 17.0165 13.9778 17.1417 14.0652 17.208L17.3155 19.6474C17.3663 19.6857 17.3589 19.7457 17.3589 19.8085V22.8314M15.1686 18.0451L17.9012 14.4868M13.3755 14.9525L14.4503 13.5148C14.4886 13.4605 14.5498 13.4285 14.6155 13.4285H16.7875L17.9303 14.5714L17.9183 16.6C17.9183 16.7423 18.0332 16.8571 18.1755 16.8571H20.4841M7.64462 5.71426C7.64462 5.36626 8.09891 4.85712 8.50177 4.85712H23.3429C23.7458 4.85712 24.2161 5.36626 24.2161 5.71426M5.93034 7.42855C5.93034 7.01312 6.30634 6.5714 6.78748 6.5714H25.0732C25.5543 6.5714 25.9303 7.01312 25.9303 7.42855M5.32691 25.4148C4.78691 25.4148 4.28577 25.0045 4.28577 24.5377V9.22226C4.28577 8.7554 4.78691 8.32054 5.32691 8.32054H26.7623C27.3023 8.32054 27.5749 8.7554 27.5749 9.22226V24.5377C27.5749 25.0045 27.3023 25.4148 26.7623 25.4148H13.2412H5.32691Z" stroke="#181818"/>
</svg>
