<svg width="32" height="32" viewBox="0 0 32 32" fill="none" xmlns="http://www.w3.org/2000/svg">
<path d="M17.5214 26.1994C17.6888 26.7691 18.2694 27.1451 18.9071 27.1451H21.1471C21.9042 27.1451 22.5808 26.6154 22.5808 25.8594V9.4091C22.5808 8.65253 21.9042 8.27824 21.1471 8.27824H18.9071M5.86823 20.276H14.7277C15.2808 20.276 15.7282 19.828 15.7282 19.276V13.256C15.7282 12.7028 15.2808 12.2554 14.7277 12.2554H5.86823C5.31509 12.2554 4.87052 12.7028 4.87052 13.256V19.276C4.87052 19.828 5.31509 20.276 5.86823 20.276ZM10.3928 4.17139C14.5202 4.17139 17.4419 6.1851 17.4419 7.57482V21.7931C17.4419 25.9754 13.8717 27.156 10.3928 27.148C7.10709 27.1422 3.14252 26.1697 3.14252 21.7931V7.57482C3.14252 6.1851 6.26537 4.17139 10.3928 4.17139ZM25.1619 27.1451H27.4014C28.1591 27.1451 28.8357 26.6154 28.8357 25.8594V9.4091C28.8357 8.65253 28.1591 8.27824 27.4014 8.27824H25.1619C24.4042 8.27824 23.7282 8.65253 23.7282 9.4091V25.8594C23.7282 26.6154 24.4042 27.1451 25.1619 27.1451Z" stroke="#181818"/>
<path fill-rule="evenodd" clip-rule="evenodd" d="M6.92794 7.42432H13.9119L14.0137 7.6506L10.4119 8.85289L6.81023 7.6786L6.92794 7.42432ZM26.3742 11.7095C26.3114 11.7592 26.2148 11.7592 26.1531 11.7095L24.6091 10.2757H27.9542L26.3742 11.7095Z" fill="#181818"/>
</svg>
