<svg width="32" height="32" viewBox="0 0 32 32" fill="none" xmlns="http://www.w3.org/2000/svg">
<path fill-rule="evenodd" clip-rule="evenodd" d="M2.88199 16.2919H9.73913H2.88199ZM15.7568 27.7381L15.7603 22.3056L15.7568 27.7381ZM15.7391 4.86328L15.7357 10.2959L15.7391 4.86328ZM28.5963 16.2919H21.7391H28.5963Z" stroke="#181818"/>
<path fill-rule="evenodd" clip-rule="evenodd" d="M16.2509 12.008C16.5034 12.0132 16.7566 12.0212 17.0086 12.032C17.2126 12.0406 17.4154 12.0537 17.6189 12.0669C17.8897 12.084 18.1606 12.108 18.4274 12.1617C18.6594 12.2086 18.8834 12.2777 19.092 12.3943C19.3114 12.5183 19.488 12.6863 19.62 12.9012C19.76 13.1286 19.8371 13.3783 19.8874 13.6383C19.928 13.8446 19.9503 14.0532 19.9669 14.2617C19.9869 14.508 20.0011 14.7543 20.0126 15.0006C20.0257 15.2949 20.0349 15.5897 20.0394 15.8846C20.0429 16.1217 20.044 16.3583 20.0417 16.5954C20.0394 16.78 20.036 16.9652 20.0297 17.1503C20.0223 17.3794 20.0114 17.6086 20 17.8389C19.9903 18.0149 19.9794 18.1914 19.9646 18.3674C19.94 18.6606 19.9057 18.952 19.8211 19.2349C19.7331 19.532 19.5943 19.8 19.3606 20.0114C19.2114 20.1469 19.0394 20.2452 18.852 20.3172C18.6297 20.4017 18.3983 20.4497 18.1634 20.4806C17.9349 20.5109 17.7063 20.5269 17.4771 20.5406C17.2851 20.5526 17.0926 20.5623 16.9 20.5709C16.712 20.5794 16.5246 20.5834 16.3366 20.5886C15.9691 20.5989 15.6011 20.5954 15.2337 20.5909C14.9937 20.588 14.7543 20.5783 14.5149 20.5674C14.3051 20.5583 14.096 20.5469 13.8869 20.5326C13.5857 20.5126 13.2851 20.4869 12.9903 20.42C12.7846 20.3737 12.5863 20.3074 12.4023 20.2029C12.1434 20.056 11.948 19.8497 11.8131 19.5846C11.692 19.3469 11.6269 19.0926 11.5851 18.8309C11.5509 18.6177 11.5331 18.4029 11.5183 18.1874C11.504 17.972 11.4909 17.7566 11.4823 17.5412C11.4749 17.3703 11.4697 17.1994 11.464 17.0292C11.4526 16.676 11.452 16.3229 11.4549 15.9703C11.4566 15.7823 11.4611 15.5949 11.4669 15.4069C11.4731 15.2252 11.48 15.0434 11.4909 14.8623C11.504 14.636 11.516 14.4092 11.536 14.1834C11.5589 13.928 11.5903 13.6749 11.6566 13.4269C11.7217 13.1857 11.8183 12.9583 11.9743 12.76C12.1589 12.5257 12.4 12.3709 12.6777 12.2697C12.9171 12.1823 13.1651 12.1372 13.4166 12.1074C13.6429 12.0806 13.8697 12.0657 14.0971 12.0532C14.3074 12.0412 14.5177 12.0314 14.7286 12.0229C15.0589 12.0097 15.3897 12.0029 15.72 12.0074C15.8971 12.0074 16.0737 12.0046 16.2509 12.008ZM2.43428 16.3486L4.61657 14.2469V18.4474L2.43428 16.3486ZM15.7434 29.0634L13.6417 26.8817H17.8417L15.7434 29.0634ZM15.7349 3.52002L17.8366 5.70173H13.6366L15.7349 3.52002ZM29.064 16.3486L26.8817 18.4474V14.2469L29.064 16.3486Z" fill="#181818"/>
</svg>
