<svg width="32" height="32" viewBox="0 0 32 32" fill="none" xmlns="http://www.w3.org/2000/svg">
<path d="M10.216 25.9926C4.54457 22.7183 2.60228 15.4663 5.876 9.796M22.0731 5.456C27.744 8.73029 29.6874 15.9811 26.4126 21.6526M20.5257 26.4709L18.3177 27.0623C17.4429 27.2966 16.4983 26.8943 16.2634 26.0211L11.244 7.28572C11.0097 6.412 11.6749 5.77029 12.5497 5.536L14.7577 4.94457C15.6326 4.70972 16.5291 4.93314 16.7634 5.80686L21.784 24.5417C22.0177 25.4154 21.4006 26.2366 20.5257 26.4709Z" stroke="#181818"/>
<path fill-rule="evenodd" clip-rule="evenodd" d="M9.56083 22.843L11.862 26.9447L7.16083 26.9996L9.56083 22.843ZM22.3248 8.73502L19.9625 4.59788L24.7254 4.57788L22.3248 8.73502ZM14.4957 8.8596C14.5837 8.89845 14.6945 8.86817 14.7511 8.79102L16.0905 6.65788L12.2271 7.69274L14.4957 8.8596Z" fill="#181818"/>
</svg>
