<svg width="32" height="32" viewBox="0 0 32 32" fill="none" xmlns="http://www.w3.org/2000/svg">
<path d="M22.5714 19.4368V16.8571C22.5714 16.2158 22.2799 15.7143 21.6386 15.7143H15.7143M15.7143 15.7143V11.421M15.7143 15.7143H9.78999C9.14866 15.7143 8.85714 16.2158 8.85714 16.8571V19.4331M10.5714 10.5714V6H20.8552V10.5714H10.5714ZM3.71428 24.8571V20.2857H13.9981V24.8571H3.71428ZM17.4286 24.8571V20.2857H27.7124V24.8571H17.4286Z" stroke="#181818"/>
<path fill-rule="evenodd" clip-rule="evenodd" d="M16.1636 17.5276C15.9146 17.7766 15.5131 17.7766 15.264 17.5276L13.8997 16.1632C13.6525 15.916 13.6525 15.5127 13.8997 15.2636L15.264 13.9012C15.5131 13.6521 15.9146 13.6521 16.1636 13.9012L17.5279 15.2636C17.7752 15.5127 17.7752 15.916 17.5279 16.1632L16.1636 17.5276Z" fill="#181818"/>
</svg>
