<svg width="32" height="32" fill="none" xmlns="http://www.w3.org/2000/svg"><path clip-rule="evenodd" d="M16 23.648c-4.216 0-7.647-3.431-7.647-7.648 0-4.216 3.43-7.647 7.647-7.647 4.217 0 7.647 3.43 7.647 7.647 0 4.217-3.43 7.648-7.647 7.648ZM25.945 16c0-.503-.038-.998-.11-1.482l2.14-1.512-.264-.81-.264-.812-2.624.035a9.998 9.998 0 0 0-1.74-2.392l.844-2.487-.689-.501-.69-.501-2.102 1.57a9.868 9.868 0 0 0-2.817-.917l-.776-2.504h-1.705l-.777 2.504a9.867 9.867 0 0 0-2.816.917l-2.103-1.57-.69.5-.689.502.845 2.487a10 10 0 0 0-1.74 2.392l-2.625-.035-.263.811-.264.811 2.14 1.512a9.984 9.984 0 0 0 0 2.965l-2.14 1.511.264.811.263.811 2.624-.035a9.994 9.994 0 0 0 1.74 2.392l-.844 2.488.69.501.69.501 2.102-1.57c.873.438 1.82.752 2.816.917l.777 2.503h1.705l.777-2.503a9.877 9.877 0 0 0 2.816-.917l2.102 1.57.69-.501.69-.501-.845-2.488a9.991 9.991 0 0 0 1.74-2.392l2.624.035.264-.81.263-.812-2.14-1.511c.073-.484.111-.979.111-1.483Z" stroke="#181818"/><path fill-rule="evenodd" clip-rule="evenodd" d="m20.27 16-6.405 4.052v-8.104L20.27 16Z" fill="#181818"/></svg>