<svg width="32" height="32" viewBox="0 0 32 32" fill="none" xmlns="http://www.w3.org/2000/svg">
<path fill-rule="evenodd" clip-rule="evenodd" d="M25.1427 8.28577H28.5713C28.8873 8.28577 29.1427 8.54177 29.1427 8.8572V11.7143C29.1427 12.0298 28.8873 12.2858 28.5713 12.2858H25.1427C24.8267 12.2858 24.5713 12.0298 24.5713 11.7143V8.8572C24.5713 8.54177 24.8267 8.28577 25.1427 8.28577Z" fill="#181818"/>
<path d="M25.4287 7.71434V7.31262C25.4287 6.69605 25.6944 6.28577 26.4716 6.28577H27.231C28.0099 6.28577 28.2859 6.69605 28.2859 7.31262V7.71434" stroke="#181818"/>
<path d="M22.2857 9.14282H7C5.34315 9.14282 4 10.486 4 12.1428V22.1428C4 23.7997 5.34315 25.1428 7 25.1428H25C26.6569 25.1428 28 23.7997 28 22.1428V14.5714" stroke="#181818"/>
<path d="M16.506 20.2384C14.7923 18.5287 14.7923 15.7567 16.506 14.0472M15.0406 21.7142C12.5099 19.1894 12.5099 15.0959 15.0406 12.5714M17.7846 18.963C16.7768 17.9576 16.7768 16.3278 17.7846 15.3226M18.8569 16.4148C18.4538 16.8169 18.4538 17.4688 18.8569 17.8709" stroke="#181818"/>
</svg>
