<svg width="32" height="32" viewBox="0 0 32 32" fill="none" xmlns="http://www.w3.org/2000/svg">
<path d="M20.6266 18.8697C20.8483 19.3777 20.9712 19.9383 20.9712 20.5274C20.9712 22.8188 19.1135 24.6765 16.8221 24.6765C15.3226 24.6765 14.0095 23.8817 13.2803 22.6908C13.2112 22.5771 13.1472 22.4605 13.0889 22.3405M15.0358 7.65654C15.6078 6.52454 16.8255 5.74282 18.2341 5.74282C20.1923 5.74282 21.7803 7.25254 21.7803 9.11482C21.7803 9.41711 21.7386 9.70911 21.6603 9.98796M8.21577 16.2365C8.45977 15.3954 8.97977 14.672 9.67177 14.1714C10.3089 13.7103 11.0923 13.4383 11.9398 13.4383M8.21577 16.2365C8.2032 16.2811 8.1912 16.3257 8.17977 16.3703C8.10491 16.6714 8.06491 16.9874 8.06491 17.3143C8.06491 19.4543 9.79977 21.1908 11.9398 21.1908C12.4895 21.1908 14.0038 21.1908 15.2329 20.096M8.21577 16.2365L8.12205 16.3697H6.86091C4.4912 16.3697 2.5712 14.4497 2.5712 12.0805C2.5712 9.73368 4.45691 7.82968 6.79405 7.79368C7.75805 5.76968 9.81691 4.36682 12.2078 4.36682C13.5381 4.36682 14.7672 4.79996 15.7609 5.53311M21.7249 8.73539H22.9575C24.5563 8.73539 25.8523 10.0314 25.8523 11.6303C25.8523 12.6863 25.2855 13.6108 24.4392 14.116C24.0055 14.3748 23.4986 14.5234 22.9575 14.5234M26.4786 13.4383C28.0403 13.4383 29.3055 14.7034 29.3055 16.2645C29.3055 17.7714 27.9655 19.1223 26.4786 19.2068C26.3769 22.064 25.1095 23.0817 23.1952 23.1891C22.1969 23.2445 21.2341 22.796 20.6626 22.332" stroke="#181818"/>
<path fill-rule="evenodd" clip-rule="evenodd" d="M13.0949 27.4388H18.8126C19.1286 27.4388 19.384 27.6943 19.384 28.0103V28.0234C19.384 28.3394 19.1286 28.5948 18.8126 28.5948H13.0949C12.7794 28.5948 12.5234 28.3394 12.5234 28.0234V28.0103C12.5234 27.6943 12.7794 27.4388 13.0949 27.4388Z" fill="#181818"/>
</svg>
