<svg width="32" height="32" viewBox="0 0 32 32" fill="none" xmlns="http://www.w3.org/2000/svg">
<path d="M9.76212 17.2508V16.0101C9.76212 13.3036 9.76212 11.6069 9.76212 10.92C9.76212 10.6371 14.1218 11.6507 14.4819 7.31932C14.8419 2.98794 14.9984 1.34985 16 1.14282C17.0009 1.16563 17.1256 6.11432 17.1371 7.31932C17.1448 8.12264 17.1448 11.1548 17.1371 16.4159" stroke="#181818" stroke-width="1.03"/>
<path d="M9.76212 16.6077C9.76212 19.2405 9.76212 20.8909 9.76212 21.5591C9.76212 21.8344 14.1218 20.6353 14.4819 24.8488C14.8419 29.0622 14.9984 30.6557 16 30.8571C17.0009 30.8349 17.1256 26.0209 17.1371 24.8488C17.1448 24.0673 17.1448 21.1177 17.1371 15.9999" stroke="#181818" stroke-width="1.03"/>
<path d="M20.5714 15.9999V11.3389V6.67465C20.6391 3.3677 20.9417 1.71423 21.4793 1.71423C22.0169 1.71423 22.2857 5.19731 22.2857 12.1635V15.9999" stroke="#181818" stroke-width="1.03"/>
<path d="M20.5714 15.9999V20.6588V25.3241C20.6391 28.6318 20.9417 30.2856 21.4793 30.2856C22.0169 30.2856 22.2857 26.8018 22.2857 19.8341V15.9999" stroke="#181818" stroke-width="1.03"/>
<path fill-rule="evenodd" clip-rule="evenodd" d="M17.1429 10.8571H19.4286V13.7142H17.1429" fill="#181818"/>
<path fill-rule="evenodd" clip-rule="evenodd" d="M17.1429 18.2856H19.4286V21.1428H17.1429" fill="#181818"/>
<path d="M14.7189 4.73206V27.4387" stroke="#181818"/>
</svg>
