<svg width="32" height="32" viewBox="0 0 32 32" fill="none" xmlns="http://www.w3.org/2000/svg">
<path fill-rule="evenodd" clip-rule="evenodd" d="M6.01349 17.5462V6.46571L16.0137 3.73816L26.0151 6.46571V17.5462C26.0151 25.5476 16.0149 28.881 16.0149 28.881C16.0137 28.881 6.01349 25.5476 6.01349 17.5462Z" stroke="#181818"/>
<path fill-rule="evenodd" clip-rule="evenodd" d="M16.63 16.0598V9.22074C16.63 8.86341 16.3573 8.57141 16 8.57141C15.6413 8.57141 15.4871 8.86341 15.4871 9.22074V16.0358C15.4871 16.7238 15.1756 17.3185 14.7636 17.6158C14.109 18.0411 13.7143 18.7531 13.7143 19.5905C13.7143 20.9078 14.7823 21.9758 16.0983 21.9758C17.4156 21.9758 18.4823 20.9078 18.4823 19.5905C18.4823 18.7518 18.0823 18.0411 17.4276 17.6158C17.021 17.3225 16.6366 16.7345 16.63 16.0598Z" fill="#181818"/>
</svg>
