<svg width="32" height="32" viewBox="0 0 32 32" fill="none" xmlns="http://www.w3.org/2000/svg">
<path d="M17.9341 16.967C17.9341 18.0352 17.0682 18.9011 16 18.9011C14.9319 18.9011 14.0659 18.0352 14.0659 16.967C14.0659 15.8989 14.9319 15.033 16 15.033C17.0682 15.033 17.9341 15.8989 17.9341 16.967Z" fill="#181818"/>
<ellipse cx="16" cy="16.8571" rx="11.7143" ry="11.7143" stroke="#181818"/>
<path d="M21.5837 9.87547C20.0475 8.66419 18.1081 7.94141 15.9999 7.94141C13.8918 7.94141 11.9524 8.66419 10.4162 9.87547" stroke="#181818"/>
<path d="M21.011 12L17.1429 15.8681" stroke="#181818"/>
<path d="M9.14286 7.42854L7.83674 6.12241M6.85715 7.10201L8.81633 5.14282" stroke="#181818"/>
<path d="M22.8571 7.42854L24.1633 6.12241M25.1429 7.10201L23.1837 5.14282" stroke="#181818"/>
<path d="M16 5.14289V2.85718M14.2857 2.85718H17.7143" stroke="#181818"/>
</svg>
