<svg width="32" height="32" viewBox="0 0 32 32" fill="none" xmlns="http://www.w3.org/2000/svg">
<path fill-rule="evenodd" clip-rule="evenodd" d="M2.85722 18.197V14.229L0.0800781 16.213L2.85722 18.197ZM29.1429 18.197V14.229L31.9201 16.213L29.1429 18.197Z" fill="#242424"/>
<path d="M2.58008 16.2751H5.43379C5.43379 10.4397 10.1641 5.58829 15.9995 5.58829C20.5264 5.58829 24.3887 8.43572 25.8932 12.4369M29.4207 16.2751H26.5664C26.5664 16.7237 26.5384 17.046 26.4835 17.4797C25.8315 22.69 21.3864 26.7203 15.9995 26.7203C11.4584 26.7203 7.58636 23.8557 6.09208 19.8346" stroke="#242424"/>
<path d="M10.486 18.4334V13.5416H10.3823L8.48047 14.2414V14.9278L9.67578 14.5193V18.4334H10.486ZM13.5985 18.4334L15.5471 14.0104V13.5584H12.1688V14.2113H14.69L12.7447 18.4334H13.5985ZM17.9095 18.5004C18.4452 18.5004 18.8442 18.3223 19.1065 17.9663C19.3688 17.6103 19.4999 17.0818 19.4999 16.3809V15.5372C19.4932 14.8564 19.3587 14.3452 19.0965 14.0037C18.8342 13.6622 18.4363 13.4914 17.9028 13.4914C17.3649 13.4914 16.9648 13.6666 16.7025 14.0171C16.4402 14.3675 16.3091 14.8932 16.3091 15.5941V16.4379C16.3158 17.1187 16.4525 17.6326 16.7192 17.9797C16.986 18.3268 17.3827 18.5004 17.9095 18.5004ZM17.9095 17.8508C17.6372 17.8508 17.4374 17.7392 17.3102 17.516C17.183 17.2928 17.1193 16.9535 17.1193 16.4981V15.3932C17.126 14.9646 17.1919 14.6493 17.3169 14.4473C17.4419 14.2453 17.6372 14.1443 17.9028 14.1443C18.1751 14.1443 18.3738 14.2509 18.4988 14.4641C18.6238 14.6773 18.6863 15.0126 18.6863 15.4702V16.5718C18.6796 17.0115 18.6138 17.3346 18.4888 17.5411C18.3638 17.7476 18.1707 17.8508 17.9095 17.8508ZM21.9293 18.5004C22.465 18.5004 22.864 18.3223 23.1263 17.9663C23.3886 17.6103 23.5197 17.0818 23.5197 16.3809V15.5372C23.513 14.8564 23.3785 14.3452 23.1162 14.0037C22.854 13.6622 22.4561 13.4914 21.9226 13.4914C21.3846 13.4914 20.9845 13.6666 20.7223 14.0171C20.46 14.3675 20.3288 14.8932 20.3288 15.5941V16.4379C20.3355 17.1187 20.4723 17.6326 20.739 17.9797C21.0057 18.3268 21.4025 18.5004 21.9293 18.5004ZM21.9293 17.8508C21.657 17.8508 21.4572 17.7392 21.33 17.516C21.2027 17.2928 21.1391 16.9535 21.1391 16.4981V15.3932C21.1458 14.9646 21.2117 14.6493 21.3367 14.4473C21.4617 14.2453 21.657 14.1443 21.9226 14.1443C22.1949 14.1443 22.3936 14.2509 22.5186 14.4641C22.6436 14.6773 22.7061 15.0126 22.7061 15.4702V16.5718C22.6994 17.0115 22.6335 17.3346 22.5085 17.5411C22.3835 17.7476 22.1904 17.8508 21.9293 17.8508Z" fill="#242424"/>
</svg>
