<svg width="32" height="32" viewBox="0 0 32 32" fill="none" xmlns="http://www.w3.org/2000/svg">
<path fill-rule="evenodd" clip-rule="evenodd" d="M8.61335 14.9949C11.625 14.9949 14.0664 17.4363 14.0664 20.4479C14.0664 23.4596 11.625 25.901 8.61335 25.901C5.60172 25.901 3.16031 23.4596 3.16031 20.4479C3.16031 17.4363 5.60172 14.9949 8.61335 14.9949ZM8.61335 16.1378C6.2329 16.1378 4.30317 18.0675 4.30317 20.4479C4.30317 22.8284 6.2329 24.7581 8.61335 24.7581C10.9938 24.7581 12.9235 22.8284 12.9235 20.4479C12.9235 18.0675 10.9938 16.1378 8.61335 16.1378ZM8.60342 22.3293C8.90623 22.3293 9.15103 22.5745 9.15103 22.8762C9.15103 23.179 8.90623 23.4238 8.60342 23.4238C8.30096 23.4238 8.05689 23.179 8.05689 22.8762C8.05689 22.5745 8.30096 22.3293 8.60342 22.3293ZM9.1503 17.9422C9.15393 17.9782 9.1532 18.0159 9.1503 18.0496L8.79671 21.6515C8.78583 21.7574 8.41991 21.7411 8.41048 21.6515L8.05689 18.0496C8.02752 17.7479 8.24838 17.4791 8.55011 17.449C8.8522 17.4197 9.12093 17.6405 9.1503 17.9422ZM24 5.57727C24.2995 5.57727 24.5423 5.82006 24.5423 6.11955L24.5423 6.69162C25.2168 6.76619 25.8499 6.97822 26.413 7.29909L26.7487 6.83648C26.9248 6.59418 27.2639 6.54047 27.5062 6.71651C27.7485 6.89254 27.8022 7.23167 27.6262 7.47397L27.2895 7.9369C27.7752 8.38029 28.171 8.92052 28.4463 9.52704L28.9898 9.3509C29.2747 9.25835 29.5806 9.41423 29.6732 9.69906C29.7657 9.9839 29.6098 10.2898 29.325 10.3824L28.7815 10.5591C28.8464 10.8767 28.8805 11.2056 28.8805 11.5424C28.8805 11.8792 28.8464 12.208 28.7815 12.5256L29.325 12.7024C29.6098 12.7949 29.7657 13.1009 29.6732 13.3857C29.5806 13.6705 29.2747 13.8264 28.9898 13.7339L28.4463 13.5577C28.171 14.1643 27.7752 14.7045 27.2895 15.1479L27.6262 15.6108C27.8022 15.8531 27.7485 16.1922 27.5062 16.3683C27.2639 16.5443 26.9248 16.4906 26.7487 16.2483L26.4124 15.786C25.8495 16.1067 25.2166 16.3186 24.5423 16.3932L24.5423 16.9652C24.5423 17.2647 24.2995 17.5075 24 17.5075C23.7005 17.5075 23.4577 17.2647 23.4577 16.9652L23.4577 16.3932C22.7834 16.3186 22.1505 16.1067 21.5876 15.786L21.2512 16.2483C21.0752 16.4906 20.7361 16.5443 20.4938 16.3683C20.2515 16.1922 20.1978 15.8531 20.3738 15.6108L20.7105 15.1479C20.2248 14.7045 19.829 14.1643 19.5537 13.5577L19.0101 13.7339C18.7253 13.8264 18.4194 13.6705 18.3268 13.3857C18.2343 13.1009 18.3902 12.7949 18.675 12.7024L19.2185 12.5256C19.1536 12.208 19.1194 11.8792 19.1194 11.5424C19.1194 11.2056 19.1536 10.8767 19.2185 10.5591L18.675 10.3824C18.3902 10.2898 18.2343 9.9839 18.3268 9.69906C18.4194 9.41423 18.7253 9.25835 19.0101 9.3509L19.5537 9.52704C19.829 8.92052 20.2248 8.38029 20.7105 7.9369L20.3738 7.47397C20.1978 7.23167 20.2515 6.89254 20.4938 6.71651C20.7361 6.54047 21.0752 6.59418 21.2512 6.83648L21.587 7.29909C22.1501 6.97822 22.7832 6.76619 23.4577 6.69162L23.4577 6.11955C23.4577 5.82006 23.7005 5.57727 24 5.57727ZM23.9867 7.63529C21.8362 7.63529 20.0929 9.37862 20.0929 11.5291C20.0929 13.6796 21.8362 15.4229 23.9867 15.4229C26.1372 15.4229 27.8806 13.6796 27.8806 11.5291C27.8806 9.37862 26.1372 7.63529 23.9867 7.63529ZM22.8571 9.1428L26.2857 11.4285L22.8571 13.7142V9.1428Z" fill="#181818"/>
<path d="M9.42897 4.61768L22.571 27.3822" stroke="#181818"/>
</svg>
