<svg width="32" height="32" viewBox="0 0 32 32" fill="none" xmlns="http://www.w3.org/2000/svg">
<path fill-rule="evenodd" clip-rule="evenodd" d="M25.1657 11.8877C25.1657 12.6745 24.5274 13.3139 23.7388 13.3139C22.9508 13.3139 22.3126 12.6745 22.3126 11.8877C22.3126 11.0997 22.9508 10.4614 23.7388 10.4614C24.5274 10.4614 25.1657 11.0997 25.1657 11.8877ZM6.88399 11.8877C6.88399 11.0997 7.52227 10.4614 8.31027 10.4614C9.09884 10.4614 9.73713 11.0997 9.73713 11.8877C9.73713 12.6745 9.09884 13.3139 8.31027 13.3139C7.52227 13.3139 6.88399 12.6745 6.88399 11.8877ZM15.924 11.6945C14.748 11.6945 13.7903 10.7368 13.7903 9.5608C13.7903 8.38479 14.748 7.42822 15.924 7.42822C17.1 7.42822 18.0571 8.38479 18.0571 9.5608C18.0571 10.7368 17.1 11.6945 15.924 11.6945Z" fill="#181818"/>
<path d="M26.5714 20.5724V15.6495C26.5714 14.2666 25.4845 13.1466 24.1022 13.1466M5.42851 20.5735V15.6495C5.42851 14.2666 6.54565 13.1466 7.92794 13.1466M13.4285 11.9912C12.2674 12.6266 11.7142 13.8598 11.7142 15.2758V22.2849M18.4942 11.9912C19.6559 12.6266 20.2857 13.8598 20.2857 15.2758V22.2901M4.57137 24.2855H27.4285M23.3354 13.1466C22.8428 13.1466 22.3834 13.2889 21.9965 13.5352L23.3354 13.1466ZM8.69479 13.1466C9.18737 13.1466 9.64622 13.2889 10.0337 13.5352L8.69479 13.1466Z" stroke="#181818"/>
</svg>
