<svg width="32" height="32" viewBox="0 0 32 32" fill="none" xmlns="http://www.w3.org/2000/svg">
<path d="M16 25.1429C21.0495 25.1429 25.1429 21.0495 25.1429 16C25.1429 10.9506 21.0495 6.85718 16 6.85718C10.9505 6.85718 6.85715 10.9506 6.85715 16C6.85715 21.0495 10.9505 25.1429 16 25.1429Z" stroke="#181818"/>
<path d="M26.5222 8.30876C24.4091 5.40708 21.1349 3.4068 17.3735 3.01636" stroke="#181818"/>
<path d="M27.8889 21.2299C28.6089 19.6137 29.0179 17.8288 29.0179 15.9458C29.0179 14.0597 28.6082 12.2729 27.8857 10.656" stroke="#181818"/>
<path d="M4.152 10.6509C3.42818 12.2691 3.01723 14.0578 3.01723 15.9458C3.01723 17.8307 3.4269 19.6169 4.14879 21.2344" stroke="#181818"/>
<path d="M14.6622 3.01636C10.9027 3.40616 7.62979 5.40515 5.51668 8.30363" stroke="#181818"/>
<path d="M16 12.0001C16.9468 12.0001 17.7143 11.2326 17.7143 10.2858C17.7143 9.33905 16.9468 8.57153 16 8.57153C15.0532 8.57153 14.2857 9.33905 14.2857 10.2858C14.2857 11.2326 15.0532 12.0001 16 12.0001Z" fill="#181818"/>
</svg>
