<svg xmlns="http://www.w3.org/2000/svg" fill="none" viewBox="0 0 56 56" width="1em" height="1em" class="icon-96 responsive"><circle cx="28" cy="28" r="27" stroke="white" mask="url(#linearMask)"></circle><path fill="white" d="M41.2825 30.3765C41.2825 30.9741 41.1418 31.4795 40.8606 31.8926C40.5837 32.3013 40.2036 32.6111 39.7202 32.822C39.2412 33.0286 38.6963 33.1318 38.0854 33.1318C37.479 33.1318 36.9319 33.0286 36.4441 32.822C35.9607 32.6111 35.5762 32.3013 35.2905 31.8926C35.0093 31.4795 34.8687 30.9741 34.8687 30.3765C34.8687 29.9766 34.9478 29.614 35.106 29.2888C35.2686 28.9636 35.4927 28.6846 35.7783 28.4517C36.064 28.2144 36.4023 28.0342 36.7935 27.9111C37.1846 27.7837 37.6108 27.72 38.0723 27.72C38.6875 27.72 39.2368 27.832 39.7202 28.0562C40.208 28.2759 40.5903 28.5857 40.8672 28.9856C41.144 29.3811 41.2825 29.8447 41.2825 30.3765ZM39.5291 30.271C39.5291 29.9634 39.4675 29.6975 39.3445 29.4734C39.2258 29.2449 39.0566 29.0691 38.8369 28.946C38.6172 28.823 38.3623 28.7615 38.0723 28.7615C37.7778 28.7615 37.5208 28.823 37.301 28.946C37.0857 29.0691 36.9165 29.2449 36.7935 29.4734C36.6748 29.6975 36.6155 29.9634 36.6155 30.271C36.6155 30.583 36.6748 30.8511 36.7935 31.0752C36.9165 31.2949 37.0879 31.4641 37.3076 31.5828C37.5273 31.7014 37.7866 31.7607 38.0854 31.7607C38.3843 31.7607 38.6414 31.7014 38.8567 31.5828C39.072 31.4641 39.2368 31.2949 39.3511 31.0752C39.4697 30.8511 39.5291 30.583 39.5291 30.271ZM41.0715 25.9336C41.0715 26.417 40.9441 26.8477 40.6892 27.2256C40.4343 27.5991 40.0806 27.8914 39.6279 28.1023C39.1797 28.3132 38.6655 28.4187 38.0854 28.4187C37.5054 28.4187 36.9868 28.3132 36.5298 28.1023C36.0771 27.8914 35.7212 27.5991 35.4619 27.2256C35.207 26.8477 35.0796 26.417 35.0796 25.9336C35.0796 25.3623 35.2092 24.8789 35.4685 24.4834C35.7278 24.0835 36.0815 23.7803 36.5298 23.5737C36.9824 23.3672 37.4966 23.2639 38.0723 23.2639C38.6567 23.2639 39.1753 23.3672 39.6279 23.5737C40.0806 23.7803 40.4343 24.0835 40.6892 24.4834C40.9441 24.8789 41.0715 25.3623 41.0715 25.9336ZM39.3313 26.0061C39.3313 25.7336 39.2808 25.4963 39.1797 25.2942C39.0786 25.0876 38.9336 24.9272 38.7446 24.813C38.5601 24.6987 38.3359 24.6416 38.0723 24.6416C37.8174 24.6416 37.5977 24.6965 37.4131 24.8064C37.2285 24.9163 37.0857 25.0745 36.9846 25.281C36.8835 25.4832 36.833 25.7249 36.833 26.0061C36.833 26.283 36.8835 26.5247 36.9846 26.7312C37.0857 26.9377 37.2285 27.1003 37.4131 27.219C37.6021 27.3333 37.8262 27.3904 38.0854 27.3904C38.3447 27.3904 38.5667 27.3333 38.7512 27.219C38.9358 27.1003 39.0786 26.9377 39.1797 26.7312C39.2808 26.5247 39.3313 26.283 39.3313 26.0061Z"></path><path fill="white" d="M33.5569 27.3772V28.9922C33.5569 29.7305 33.4822 30.3611 33.3328 30.884C33.1833 31.407 32.968 31.8354 32.6868 32.1694C32.4055 32.499 32.0693 32.7429 31.6782 32.9011C31.2871 33.0549 30.8521 33.1318 30.373 33.1318C29.9907 33.1318 29.6348 33.0835 29.3052 32.9868C28.9756 32.8857 28.679 32.7319 28.4153 32.5254C28.156 32.3145 27.9319 32.0464 27.7429 31.7212C27.5583 31.396 27.4155 31.0071 27.3145 30.5544C27.2178 30.1018 27.1694 29.5811 27.1694 28.9922V27.3772C27.1694 26.6389 27.2441 26.0105 27.3936 25.4919C27.5474 24.9734 27.7649 24.5493 28.0461 24.2197C28.3274 23.8901 28.6636 23.6506 29.0547 23.5012C29.4458 23.3474 29.8809 23.2705 30.3599 23.2705C30.7466 23.2705 31.1025 23.3188 31.4277 23.4155C31.7573 23.5122 32.0518 23.6638 32.311 23.8704C32.5747 24.0725 32.7988 24.3362 32.9834 24.6614C33.168 24.9822 33.3086 25.3689 33.4053 25.8215C33.5063 26.2698 33.5569 26.7883 33.5569 27.3772ZM31.8167 29.2295V27.1333C31.8167 26.7642 31.7947 26.4434 31.7507 26.1709C31.7112 25.894 31.6519 25.6589 31.5728 25.4656C31.4937 25.2722 31.3948 25.1162 31.2761 24.9976C31.1575 24.8745 31.0212 24.7844 30.8674 24.7273C30.7136 24.6702 30.5444 24.6416 30.3599 24.6416C30.1313 24.6416 29.927 24.6877 29.7468 24.78C29.5667 24.8679 29.415 25.0085 29.292 25.2019C29.1689 25.3953 29.0745 25.6523 29.0085 25.9731C28.947 26.2896 28.9163 26.6763 28.9163 27.1333V29.2295C28.9163 29.5986 28.936 29.9216 28.9756 30.1985C29.0195 30.4753 29.0811 30.7126 29.1602 30.9104C29.2437 31.1082 29.3425 31.2708 29.4568 31.3982C29.5754 31.5212 29.7117 31.6135 29.8655 31.675C30.0193 31.7322 30.1885 31.7607 30.373 31.7607C30.606 31.7607 30.8103 31.7146 30.9861 31.6223C31.1663 31.53 31.3179 31.385 31.4409 31.1873C31.564 30.9851 31.6562 30.7236 31.7178 30.4028C31.7837 30.0776 31.8167 29.6865 31.8167 29.2295Z"></path><path fill="white" d="M20.6831 23.4023V33H18.8704V23.4023H20.6831ZM26.4443 23.4023L22.5947 28.0825L20.3931 30.4358L20.0701 28.6758L21.5994 26.6917L24.2229 23.4023H26.4443ZM24.4272 33L21.4412 28.5044L22.7397 27.3311L26.5828 33H24.4272Z"></path><path fill="white" d="M16.9126 23.4023V33H15.0999V23.4023H16.9126Z"></path><defs><linearGradient id="linGrad" x2="0" y2="1"><stop stop-color="white"></stop><stop offset="0.2" stop-color="white" stop-opacity="0.19"></stop><stop offset="0.5" stop-color="white" stop-opacity="0"></stop><stop offset="0.8" stop-color="white" stop-opacity="0.19"></stop><stop offset="1" stop-color="white"></stop></linearGradient><mask id="linearMask" maskContentUnits="objectBoundingBox"><rect width="1" height="1.02" x="0" y="-0.01" fill="url(#linGrad)"></rect></mask></defs></svg>